<!DOCTYPE svg PUBLIC "-//W3C//DTD SVG 20010904//EN" "http://www.w3.org/TR/2001/REC-SVG-20010904/DTD/svg10.dtd">
<svg version="1.0" xmlns="http://www.w3.org/2000/svg" width="64px" height="66px" viewBox="0 0 640 660" preserveAspectRatio="xMidYMid meet">
<g id="layer101" fill="#34274a" stroke="none">
 <path d="M0 330 l0 -330 320 0 320 0 0 330 0 330 -320 0 -320 0 0 -330z"/>
 </g>
<g id="layer102" fill="#5f5e67" stroke="none">
 <path d="M0 330 l0 -330 320 0 320 0 0 330 0 330 -320 0 -320 0 0 -330z m621 3 c13 -16 12 -17 -3 -4 -17 13 -22 21 -14 21 2 0 10 -8 17 -17z m-111 -61 c0 -5 -7 -9 -15 -9 -8 0 -12 4 -9 9 3 4 9 8 15 8 5 0 9 -4 9 -8z m20 -40 c0 -10 -5 -23 -12 -30 -16 -16 -41 17 -26 35 15 19 38 16 38 -5z m-220 -69 c0 -10 -5 -25 -10 -33 -9 -13 -12 -12 -25 5 -14 17 -13 20 7 32 29 16 28 16 28 -4z"/>
 </g>
<g id="layer103" fill="#586c90" stroke="none">
 <path d="M0 330 l0 -330 320 0 320 0 0 152 c0 152 0 152 -27 182 l-28 31 27 -24 28 -24 0 171 0 172 -130 0 c-112 0 -130 -2 -140 -17 -11 -17 -11 -17 -6 0 5 16 -8 17 -179 17 l-185 0 0 -330z m247 263 c-4 -3 -7 0 -7 7 0 7 3 10 7 7 3 -4 3 -10 0 -14z m57 -63 c-6 -6 -10 -3 -10 10 0 13 4 16 10 10 7 -7 7 -13 0 -20z m13 -27 c-4 -3 -7 0 -7 7 0 7 3 10 7 7 3 -4 3 -10 0 -14z m223 -102 c0 -6 -4 -13 -10 -16 -5 -3 -10 1 -10 9 0 9 5 16 10 16 6 0 10 -4 10 -9z m-30 -131 c0 -5 -2 -10 -4 -10 -2 0 -12 -3 -20 -6 -12 -5 -15 -2 -10 10 7 17 34 22 34 6z m33 -29 c-3 -11 -14 -28 -24 -37 -18 -17 -20 -16 -33 2 -12 16 -12 20 2 30 10 6 26 14 37 17 11 2 21 5 22 6 0 0 -1 -8 -4 -18z m-233 -82 c0 -19 -7 -32 -21 -40 -13 -7 -19 -7 -15 -1 3 6 2 13 -4 17 -16 10 -12 23 10 30 11 4 17 11 14 17 -4 6 -10 5 -15 -3 -5 -8 -9 -9 -9 -3 0 16 10 23 26 17 8 -3 14 -18 14 -34z m-81 -32 c1 -5 -3 -5 -9 -2 -5 3 -10 16 -9 28 0 21 1 21 9 2 5 -11 9 -24 9 -28z"/>
 </g>
<g id="layer104" fill="#78726c" stroke="none">
 <path d="M0 330 l0 -330 100 0 100 0 -16 28 -17 27 24 -28 c17 -19 32 -27 52 -25 31 3 34 10 12 28 -13 11 -15 10 -9 -6 4 -15 3 -16 -4 -4 -5 8 -13 26 -17 40 -7 21 -1 18 33 -18 l40 -42 164 1 c90 0 157 3 151 6 -7 2 -13 19 -13 38 0 18 -7 52 -15 75 -8 23 -15 50 -14 59 0 22 36 -68 45 -115 l7 -39 9 30 c8 27 5 87 -7 170 -4 24 -3 26 4 10 8 -16 10 -12 10 22 1 31 -6 49 -25 72 -14 17 -32 31 -39 31 -8 0 -17 5 -20 10 -13 21 16 9 50 -21 l35 -31 0 171 0 171 -130 0 c-112 0 -130 -2 -140 -17 -11 -17 -11 -17 -6 0 4 13 0 17 -19 17 -27 0 -32 -11 -12 -32 15 -17 21 -42 7 -33 -5 3 -10 1 -10 -5 0 -6 -5 -8 -10 -5 -8 5 -8 11 0 20 8 10 4 16 -20 26 -16 8 -30 17 -30 21 0 5 -61 8 -135 8 l-135 0 0 -330z m247 263 c-4 -3 -7 0 -7 7 0 7 3 10 7 7 3 -4 3 -10 0 -14z m57 -63 c-6 -6 -10 -3 -10 10 0 13 4 16 10 10 7 -7 7 -13 0 -20z m13 -27 c-4 -3 -7 0 -7 7 0 7 3 10 7 7 3 -4 3 -10 0 -14z m223 -108 c0 -8 -4 -15 -10 -15 -5 0 -10 7 -10 15 0 8 5 15 10 15 6 0 10 -7 10 -15z m-30 -125 c0 -5 -2 -10 -4 -10 -2 0 -12 -3 -20 -6 -12 -5 -15 -2 -10 10 7 17 34 22 34 6z m33 -27 c-7 -20 -33 -53 -42 -53 -3 0 -12 9 -18 19 -10 17 -8 21 20 35 41 20 48 20 40 -1z m-233 -84 c0 -19 -7 -32 -22 -40 -13 -6 -20 -8 -16 -4 4 5 3 14 -2 20 -7 8 -7 21 -1 39 14 34 41 24 41 -15z m-86 -11 c4 -17 2 -28 -4 -28 -5 0 -10 14 -10 32 0 36 4 35 14 -4z m-60 -77 c-6 -6 -11 1 -18 29 l-7 25 15 -25 c8 -14 12 -27 10 -29z m40 4 c5 -22 4 -26 -4 -15 -5 8 -10 24 -10 34 0 26 6 18 14 -19z m363 -37 c-2 -13 -4 -3 -4 22 0 25 2 35 4 23 2 -13 2 -33 0 -45z"/>
 <path d="M280 180 c0 -5 5 -10 11 -10 5 0 7 5 4 10 -3 6 -8 10 -11 10 -2 0 -4 -4 -4 -10z"/>
 </g>
<g id="layer105" fill="#887972" stroke="none">
 <path d="M0 331 l0 -331 100 0 100 0 -16 28 -17 27 24 -28 c17 -19 32 -27 52 -25 31 3 34 10 12 28 -13 11 -15 10 -9 -6 4 -15 3 -16 -4 -4 -5 8 -13 26 -17 40 -7 21 -2 18 32 -17 l40 -42 164 0 c90 0 158 3 152 6 -7 2 -13 19 -13 38 0 18 -7 52 -15 75 -8 23 -15 50 -14 59 0 22 36 -68 45 -115 l7 -39 9 30 c8 27 5 87 -7 170 -4 24 -3 26 4 10 8 -16 10 -12 10 22 1 31 -6 49 -25 72 -14 17 -32 31 -39 31 -8 0 -17 5 -20 10 -13 21 16 9 50 -21 l35 -31 0 171 0 171 -70 0 c-74 0 -74 0 -73 -57 1 -13 -23 -6 -77 22 -16 8 -33 15 -38 15 -5 0 -12 -25 -14 -55 -3 -31 -10 -61 -16 -67 -20 -20 -25 0 -6 30 21 36 12 80 -10 50 -7 -10 -16 -15 -20 -11 -3 3 2 15 11 26 10 11 13 18 7 14 -11 -7 -64 13 -64 24 0 3 -61 7 -135 8 l-135 2 0 -330z m250 280 c0 -15 9 -45 19 -67 l19 -39 4 35 3 35 17 -37 c9 -21 22 -38 28 -38 6 0 8 -4 5 -10 -3 -5 -1 -10 6 -10 9 0 9 -3 0 -14 -9 -11 -9 -15 1 -19 9 -4 9 -6 -2 -6 -8 -1 -30 8 -48 19 -18 11 -37 18 -42 15 -5 -3 -20 12 -34 34 -14 21 -31 42 -38 45 -7 3 -2 5 12 5 42 -2 42 0 19 39 -20 32 -20 35 -4 22 11 -9 16 -10 11 -2 -4 6 -4 17 -1 22 11 17 25 0 25 -29z m296 -216 c-8 -8 -17 -15 -20 -15 -3 0 -6 7 -6 15 0 9 9 15 21 15 18 0 19 -2 5 -15z m-36 -125 c0 -5 -2 -10 -4 -10 -2 0 -12 -3 -20 -6 -12 -5 -15 -2 -10 10 7 17 34 22 34 6z m40 -19 c0 -11 -39 -61 -48 -61 -4 0 -13 9 -19 19 -10 17 -8 21 20 35 37 18 47 20 47 7z m-240 -90 c0 -27 -16 -51 -34 -51 -5 0 -6 3 -3 7 4 3 2 12 -3 18 -7 8 -7 21 -1 39 13 33 41 24 41 -13z m-67 -38 l20 -23 -26 13 c-21 9 -27 19 -26 42 1 21 3 24 6 10 3 -11 14 -30 26 -42z m-79 -52 c-6 -6 -11 1 -18 29 l-7 25 15 -25 c8 -14 12 -27 10 -29z m40 4 c5 -22 4 -26 -4 -15 -5 8 -10 24 -10 34 0 26 6 18 14 -19z m363 -37 c-2 -13 -4 -3 -4 22 0 25 2 35 4 23 2 -13 2 -33 0 -45z"/>
 <path d="M296 505 c-3 -8 -1 -15 4 -15 6 0 10 7 10 15 0 8 -2 15 -4 15 -2 0 -6 -7 -10 -15z"/>
 <path d="M280 180 c0 -5 5 -10 11 -10 5 0 7 5 4 10 -3 6 -8 10 -11 10 -2 0 -4 -4 -4 -10z"/>
 <path d="M410 651 c0 -5 7 -11 14 -14 10 -4 13 -1 9 9 -6 15 -23 19 -23 5z"/>
 <path d="M454 642 c4 -3 14 -7 22 -8 9 -1 13 0 10 4 -4 3 -14 7 -22 8 -9 1 -13 0 -10 -4z"/>
 </g>
<g id="layer106" fill="#6b7894" stroke="none">
 <path d="M0 330 l0 -330 100 0 100 0 -16 28 -17 27 24 -28 c17 -19 32 -27 52 -25 31 3 34 10 12 28 -13 11 -15 10 -9 -6 4 -15 3 -16 -4 -4 -5 8 -13 26 -17 40 -7 21 -2 18 32 -17 l40 -42 164 0 c90 0 158 3 152 6 -7 2 -13 19 -13 38 0 18 -7 52 -15 75 -8 23 -15 50 -14 59 0 22 36 -68 45 -115 l7 -39 9 30 c8 27 5 87 -7 170 -4 24 -3 26 4 10 8 -16 10 -12 10 22 1 31 -6 49 -25 72 -14 17 -32 31 -39 31 -8 0 -17 5 -20 10 -13 21 16 9 50 -21 l35 -31 0 171 0 171 -65 0 c-58 0 -65 -2 -65 -19 0 -11 -5 -23 -10 -26 -8 -5 -7 -11 0 -20 7 -8 -10 -3 -37 10 -82 39 -87 38 -93 -21 -3 -28 -11 -58 -18 -66 -10 -12 -9 -18 3 -28 16 -13 20 -46 7 -54 -5 -3 -28 6 -51 20 -29 16 -47 21 -55 15 -8 -7 -15 -1 -24 18 -7 15 -22 38 -34 51 l-22 23 27 -5 c31 -6 35 7 11 40 -15 21 -15 25 2 43 17 19 15 19 -99 19 l-117 0 0 -330z m544 63 c-17 -18 -29 -11 -21 11 4 9 13 13 21 10 14 -5 14 -8 0 -21z m-34 -123 c0 -5 -2 -10 -4 -10 -2 0 -12 -3 -20 -6 -12 -5 -15 -2 -10 10 7 17 34 22 34 6z m40 -18 c0 -14 -31 -52 -52 -63 -15 -8 -19 -8 -13 0 4 7 2 18 -4 25 -9 10 -4 17 21 29 37 19 48 21 48 9z m-240 -92 c0 -27 -26 -58 -45 -54 -45 9 -55 17 -54 48 1 21 3 25 6 11 7 -29 33 -54 49 -48 10 4 12 9 4 18 -7 8 -7 21 -1 39 13 33 41 24 41 -14z m-146 -89 c-6 -6 -11 1 -18 29 l-7 25 15 -25 c8 -14 12 -27 10 -29z m40 4 c5 -22 4 -26 -4 -15 -5 8 -10 24 -10 34 0 26 6 18 14 -19z m363 -37 c-2 -13 -4 -3 -4 22 0 25 2 35 4 23 2 -13 2 -33 0 -45z"/>
 <path d="M280 180 c0 -5 5 -10 11 -10 5 0 7 5 4 10 -3 6 -8 10 -11 10 -2 0 -4 -4 -4 -10z"/>
 <path d="M257 653 c-12 -12 -7 -60 10 -99 l17 -39 7 30 c6 28 7 29 14 8 4 -13 9 -23 11 -23 12 0 44 37 44 52 0 23 -19 33 -26 14 -3 -9 -10 -13 -16 -10 -5 3 -1 15 9 27 10 11 13 17 6 13 -12 -6 -51 10 -64 27 -3 4 -8 4 -12 0z"/>
 </g>
<g id="layer107" fill="#63779f" stroke="none">
 <path d="M0 330 l0 -330 101 0 c65 0 98 4 94 10 -4 6 -11 8 -16 5 -5 -3 -6 2 -2 11 5 13 3 15 -7 9 -9 -6 -11 -4 -5 5 5 9 13 5 29 -14 15 -19 29 -26 49 -24 31 3 34 10 12 28 -13 11 -14 10 -9 -6 12 -32 -3 -11 -19 27 -12 29 -12 36 -1 36 7 0 12 -3 11 -6 -1 -3 12 -23 28 -43 24 -30 37 -38 63 -38 24 0 31 4 26 13 -6 9 -4 9 7 -1 17 -16 143 -17 133 -1 -5 8 -1 8 14 0 11 -6 42 -11 69 -10 26 0 42 3 36 6 -7 2 -13 20 -13 39 0 19 -7 51 -15 71 -15 36 -21 82 -9 70 4 -4 17 -41 29 -83 l22 -76 7 42 c4 23 4 56 2 73 -14 90 -15 112 -6 92 7 -16 9 -12 9 22 1 31 -6 49 -25 72 -26 31 -54 41 -54 19 0 -6 -9 -3 -20 7 -32 29 -23 76 10 54 8 -5 11 -9 6 -9 -12 0 14 -30 26 -30 6 0 4 8 -3 18 -12 15 -12 16 2 5 9 -7 20 -9 25 -5 4 4 3 0 -4 -9 -10 -13 -7 -20 13 -39 l25 -23 0 171 0 172 -65 0 c-58 0 -65 -2 -65 -19 0 -11 -5 -23 -10 -26 -8 -5 -7 -11 0 -20 7 -8 -10 -3 -37 10 -82 39 -87 38 -93 -21 -3 -28 -11 -58 -18 -66 -10 -12 -9 -18 3 -28 16 -13 20 -46 7 -54 -5 -3 -28 6 -51 20 -29 16 -47 21 -55 15 -8 -7 -15 -1 -24 18 -7 15 -22 38 -34 51 l-22 23 27 -5 c31 -6 35 7 11 40 -15 21 -15 25 2 43 17 19 15 19 -99 19 l-117 0 0 -330z m508 -62 c-3 -7 -12 -14 -21 -16 -12 -2 -15 1 -11 12 7 19 38 22 32 4z m107 2 c3 -5 4 -10 1 -10 -3 0 -8 5 -11 10 -3 6 -4 10 -1 10 3 0 8 -4 11 -10z m-79 -45 c-19 -29 -59 -54 -50 -31 3 8 0 17 -6 21 -8 5 -4 13 12 23 13 9 26 17 30 17 3 0 10 4 14 8 16 16 16 -14 0 -38z m-400 -36 l3 -44 -9 43 c-5 23 -12 48 -16 55 -5 9 -4 9 5 1 7 -6 14 -31 17 -55z m101 -61 c19 -21 50 -13 32 8 -17 20 4 66 26 58 20 -8 19 -58 -1 -75 -22 -18 -47 -21 -56 -6 -6 9 -8 8 -8 -3 0 -13 -1 -13 -10 0 -5 8 -9 40 -8 70 1 54 2 54 5 10 3 -25 11 -53 20 -62z m-76 -62 c-6 -13 -20 23 -20 54 0 21 2 20 13 -10 7 -19 10 -39 7 -44z m396 52 c-3 -8 -6 -5 -6 6 -1 11 2 17 5 13 3 -3 4 -12 1 -19z m-353 -43 c5 -22 4 -26 -4 -15 -5 8 -10 24 -10 34 0 26 6 18 14 -19z m363 -37 c-2 -13 -4 -3 -4 22 0 25 2 35 4 23 2 -13 2 -33 0 -45z"/>
 <path d="M283 173 c4 -3 10 -3 14 0 3 4 0 7 -7 7 -7 0 -10 -3 -7 -7z"/>
 <path d="M257 633 c-11 -10 -8 -51 3 -58 6 -3 10 -15 10 -25 0 -10 5 -22 11 -26 8 -5 10 3 7 24 -4 25 -2 29 9 21 7 -7 13 -18 13 -25 0 -19 7 -18 30 4 18 16 18 20 5 38 -9 12 -14 14 -15 6 0 -7 -5 -10 -11 -6 -7 4 -8 9 0 17 7 7 5 14 -7 23 -19 15 -45 18 -55 7z"/>
 <path d="M535 370 c3 -5 8 -10 11 -10 3 0 2 5 -1 10 -3 6 -8 10 -11 10 -3 0 -2 -4 1 -10z"/>
 </g>
<g id="layer108" fill="#758698" stroke="none">
 <path d="M0 330 l0 -330 98 0 c66 0 92 3 82 10 -8 5 -10 10 -5 10 6 0 6 3 -1 8 -13 9 -34 68 -34 96 1 13 14 -5 36 -46 19 -38 37 -68 39 -68 3 0 -1 13 -10 30 -8 16 -17 58 -20 92 l-5 63 13 -62 c8 -35 17 -66 22 -70 4 -5 6 -1 3 8 -4 9 -1 16 8 16 8 0 12 -3 9 -6 -7 -6 66 -81 80 -81 5 0 3 5 -5 10 -12 8 -10 10 8 10 13 0 20 -4 17 -10 -3 -5 1 -10 10 -10 10 0 14 5 9 13 -6 9 -4 9 7 -1 15 -14 33 -16 25 -3 -6 9 16 7 72 -5 21 -4 32 -3 32 5 0 9 5 9 21 0 16 -8 24 -8 33 2 8 9 8 10 -1 5 -6 -3 -14 -2 -17 3 -3 5 4 11 16 14 19 5 20 11 15 59 -3 33 -2 45 3 33 5 -11 9 -32 9 -47 1 -15 5 -29 10 -32 5 -3 7 -15 4 -26 -3 -11 0 -20 6 -20 13 0 6 85 -10 128 -5 13 -9 33 -9 45 1 21 1 21 14 -3 7 -14 19 -49 27 -79 12 -49 14 -51 21 -25 8 32 -7 165 -22 194 -6 11 -8 20 -5 20 3 0 12 -15 20 -32 12 -29 13 -8 14 190 l1 222 -65 0 c-58 0 -65 -2 -65 -19 0 -11 -5 -23 -10 -26 -8 -5 -7 -11 0 -20 7 -8 -10 -3 -37 10 -82 39 -87 38 -93 -21 -3 -28 -11 -58 -18 -66 -10 -12 -9 -18 3 -28 16 -13 20 -46 7 -54 -5 -3 -28 6 -51 20 -29 16 -47 21 -55 15 -8 -7 -15 -1 -24 18 -7 15 -22 38 -34 51 l-22 23 27 -5 c31 -6 35 7 11 40 -15 21 -15 25 2 43 17 19 15 19 -99 19 l-117 0 0 -330z m557 68 c-1 -6 4 -13 12 -16 10 -3 11 0 5 9 -6 11 -5 12 8 2 8 -7 19 -9 24 -5 4 4 2 -1 -5 -10 -13 -18 -12 -19 11 -22 6 0 12 -9 14 -18 2 -15 -2 -14 -28 5 -23 16 -32 19 -35 9 -4 -10 -9 -9 -24 4 -19 17 -25 45 -13 57 9 9 34 -3 31 -15z m-49 -130 c-3 -7 -12 -14 -21 -16 -12 -2 -15 1 -11 12 7 19 38 22 32 4z m28 -43 c-19 -29 -59 -54 -50 -31 3 8 0 17 -6 21 -8 5 -4 13 12 23 13 9 26 17 30 17 3 0 10 4 14 8 16 16 16 -14 0 -38z m-400 -36 l3 -44 -9 43 c-5 23 -12 48 -16 55 -5 9 -4 9 5 1 7 -6 14 -31 17 -55z m101 -61 c19 -21 50 -13 32 8 -17 20 4 66 26 58 20 -8 19 -58 -1 -75 -22 -18 -47 -21 -56 -6 -6 9 -8 9 -8 0 0 -7 -4 -13 -10 -13 -6 0 -9 28 -8 68 1 53 2 57 5 22 3 -25 11 -53 20 -62z"/>
 <path d="M535 370 c3 -5 8 -10 11 -10 3 0 2 5 -1 10 -3 6 -8 10 -11 10 -3 0 -2 -4 1 -10z"/>
 <path d="M283 173 c4 -3 10 -3 14 0 3 4 0 7 -7 7 -7 0 -10 -3 -7 -7z"/>
 <path d="M257 633 c-11 -10 -8 -51 3 -58 6 -3 10 -15 10 -25 0 -10 5 -22 11 -26 8 -5 10 3 7 24 -4 25 -2 29 9 21 7 -7 13 -18 13 -25 0 -19 7 -18 30 4 20 19 13 45 -10 40 -8 -2 -15 2 -15 7 -5 37 -38 59 -58 38z"/>
 <path d="M220 44 c0 -6 7 -19 16 -30 14 -18 14 -18 3 6 -14 31 -19 36 -19 24z"/>
 </g>
<g id="layer109" fill="#91857d" stroke="none">
 <path d="M0 330 l0 -330 84 0 c67 0 85 3 90 16 3 8 2 13 -3 10 -9 -6 -28 56 -41 139 -5 28 -11 61 -15 75 -5 19 -4 22 4 10 6 -8 15 -39 22 -68 10 -50 63 -172 75 -172 2 0 -3 14 -12 31 -9 18 -17 64 -20 108 l-4 76 13 -77 c7 -42 15 -79 17 -82 3 -2 4 35 4 82 -1 48 0 67 3 42 5 -49 27 -82 49 -73 11 4 12 8 3 19 -9 11 -9 21 -1 39 15 32 42 23 42 -15 0 -32 -26 -58 -56 -55 -15 1 -20 -3 -17 -14 11 -40 53 -71 97 -71 14 0 28 -4 31 -10 3 -5 11 -10 16 -10 6 0 8 4 5 9 -5 8 48 6 63 -3 4 -3 14 4 21 14 14 19 15 19 37 -2 19 -17 26 -19 36 -9 6 7 8 12 2 11 -19 -4 -35 0 -35 8 0 5 10 8 23 8 21 -1 22 3 20 59 -2 42 0 54 7 40 5 -11 9 -34 9 -52 1 -17 5 -34 10 -37 5 -3 7 -15 4 -26 -3 -11 0 -20 6 -20 15 0 4 87 -21 159 -22 66 -22 66 -2 46 9 -9 27 -51 40 -93 l24 -77 -3 100 c-3 69 -9 110 -21 133 -9 17 -14 32 -11 32 2 0 13 -17 24 -37 l20 -38 1 38 c0 30 -7 45 -29 68 -39 39 -73 38 -38 -1 6 -8 -3 -2 -20 14 -31 28 -42 59 -25 69 11 8 82 -24 76 -34 -3 -5 -17 -2 -32 7 -24 15 -24 14 3 -7 16 -13 34 -24 40 -24 5 -1 9 -7 7 -14 -1 -7 2 -10 7 -7 6 4 10 75 10 166 l1 160 -65 0 c-58 0 -65 -2 -65 -19 0 -11 -5 -23 -10 -26 -8 -5 -7 -11 0 -20 7 -8 -10 -3 -37 10 -82 39 -87 38 -93 -21 -3 -28 -11 -58 -18 -66 -10 -12 -9 -18 3 -28 16 -13 20 -46 7 -54 -5 -3 -28 6 -51 20 -29 16 -47 21 -55 15 -8 -7 -15 -1 -24 18 -7 15 -22 38 -34 51 l-22 23 27 -5 c31 -6 35 7 11 40 -15 21 -15 25 2 43 17 19 15 19 -99 19 l-117 0 0 -330z m620 206 c0 -3 -4 -8 -10 -11 -5 -3 -10 -1 -10 4 0 6 5 11 10 11 6 0 10 -2 10 -4z m-423 -33 c-4 -3 -10 -3 -14 0 -3 4 0 7 7 7 7 0 10 -3 7 -7z m430 -50 c-4 -3 -7 0 -7 7 0 7 3 10 7 7 3 -4 3 -10 0 -14z m-580 -15 c-3 -8 -6 -5 -6 6 -1 11 2 17 5 13 3 -3 4 -12 1 -19z m10 -45 c-4 -3 -7 0 -7 7 0 7 3 10 7 7 3 -4 3 -10 0 -14z m10 -30 c-4 -3 -7 0 -7 7 0 7 3 10 7 7 3 -4 3 -10 0 -14z m23 -48 c0 -5 -5 -3 -10 5 -5 8 -10 20 -10 25 0 6 5 3 10 -5 5 -8 10 -19 10 -25z m418 -47 c-3 -7 -12 -14 -21 -16 -12 -2 -15 1 -11 12 7 19 38 22 32 4z m28 -43 c-19 -29 -59 -54 -50 -31 3 8 0 17 -6 21 -12 7 28 42 43 37 4 -1 11 6 14 15 7 17 8 17 11 0 2 -10 -3 -29 -12 -42z m-379 18 c-4 -3 -7 0 -7 7 0 7 3 10 7 7 3 -4 3 -10 0 -14z m220 -150 c-4 -3 -7 0 -7 7 0 7 3 10 7 7 3 -4 3 -10 0 -14z"/>
 <path d="M270 629 c0 -5 -4 -7 -10 -4 -11 7 -13 -6 -4 -29 3 -8 12 -13 20 -10 46 14 45 13 32 34 -14 21 -38 27 -38 9z"/>
 <path d="M313 582 c-20 -3 -21 -6 -10 -25 7 -12 13 -24 14 -26 1 -1 11 6 23 17 16 15 18 21 8 28 -7 6 -23 8 -35 6z"/>
 <path d="M274 549 c-3 -6 -1 -16 5 -22 8 -8 11 -5 11 11 0 24 -5 28 -16 11z"/>
 <path d="M220 44 c0 -6 7 -19 16 -30 14 -18 14 -18 3 6 -14 31 -19 36 -19 24z"/>
 <path d="M297 9 c7 -7 15 -10 18 -7 3 3 -2 9 -12 12 -14 6 -15 5 -6 -5z"/>
 <path d="M333 3 c4 -3 10 -3 14 0 3 4 0 7 -7 7 -7 0 -10 -3 -7 -7z"/>
 <path d="M473 3 c4 -3 10 -3 14 0 3 4 0 7 -7 7 -7 0 -10 -3 -7 -7z"/>
 </g>
<g id="layer110" fill="#877d8f" stroke="none">
 <path d="M0 330 l0 -330 84 0 c67 0 85 3 90 16 3 8 2 13 -3 10 -9 -6 -28 56 -41 139 -5 28 -11 61 -15 75 -5 19 -4 22 4 10 6 -8 15 -39 22 -68 10 -50 63 -172 75 -172 2 0 -3 14 -12 31 -9 18 -17 64 -20 108 l-4 76 13 -77 c7 -42 15 -79 17 -82 3 -2 4 35 4 82 -1 48 0 67 3 42 5 -51 17 -70 45 -70 17 0 18 2 8 15 -10 12 -10 21 -2 40 15 32 42 23 42 -15 0 -32 -26 -58 -56 -55 -15 1 -20 -3 -17 -14 11 -40 53 -71 97 -71 14 0 28 -4 31 -10 3 -5 11 -10 16 -10 6 0 8 4 5 9 -5 8 48 6 63 -3 4 -3 14 4 21 14 14 19 15 19 37 -2 19 -17 26 -19 36 -9 6 7 8 12 2 11 -19 -4 -35 0 -35 8 0 5 10 8 23 8 21 -1 22 3 20 59 -2 42 0 54 7 40 5 -11 9 -34 9 -52 1 -17 5 -34 10 -37 5 -3 7 -15 4 -26 -3 -11 0 -20 6 -20 15 0 4 87 -21 159 -22 66 -22 66 -2 46 9 -9 27 -51 40 -93 l24 -77 -3 100 c-3 69 -9 110 -21 133 -9 17 -14 32 -11 32 2 0 13 -17 24 -37 l20 -38 1 38 c0 30 -7 45 -29 68 -39 39 -73 38 -38 -1 6 -8 -3 -2 -20 14 -32 29 -43 68 -23 81 5 3 10 2 10 -2 0 -5 16 -15 35 -22 19 -7 33 -17 30 -22 -4 -5 -18 -2 -33 7 -24 15 -24 14 3 -7 16 -13 34 -24 40 -24 5 -1 9 -7 7 -14 -1 -7 2 -10 7 -7 6 4 10 75 10 166 l1 160 -65 0 -65 0 0 -39 0 -39 -51 24 c-70 34 -83 30 -90 -31 -3 -28 -7 -54 -9 -60 -2 -5 0 -22 4 -37 5 -15 3 -34 -3 -45 -6 -10 -11 -12 -11 -5 0 6 -6 12 -12 12 -7 0 -24 9 -38 19 -16 13 -30 17 -40 11 -13 -7 -22 1 -40 36 -14 24 -30 44 -37 44 -6 0 -15 5 -18 11 -5 7 5 8 29 4 41 -8 44 -1 16 35 -22 28 -25 41 -9 38 6 -2 13 2 16 8 3 9 -28 12 -107 13 l-110 2 0 -331z m620 206 c0 -3 -4 -8 -10 -11 -5 -3 -10 -1 -10 4 0 6 5 11 10 11 6 0 10 -2 10 -4z m-423 -33 c-4 -3 -10 -3 -14 0 -3 4 0 7 7 7 7 0 10 -3 7 -7z m268 -26 c66 -35 55 -34 -30 3 -39 17 -59 29 -45 27 14 -2 48 -15 75 -30z m162 -24 c-4 -3 -7 0 -7 7 0 7 3 10 7 7 3 -4 3 -10 0 -14z m-580 -15 c-3 -8 -6 -5 -6 6 -1 11 2 17 5 13 3 -3 4 -12 1 -19z m10 -45 c-4 -3 -7 0 -7 7 0 7 3 10 7 7 3 -4 3 -10 0 -14z m10 -30 c-4 -3 -7 0 -7 7 0 7 3 10 7 7 3 -4 3 -10 0 -14z m193 -7 c0 -3 -5 -8 -12 -12 -7 -4 -8 -3 -4 4 7 12 16 16 16 8z m-170 -41 c0 -5 -5 -3 -10 5 -5 8 -10 20 -10 25 0 6 5 3 10 -5 5 -8 10 -19 10 -25z m418 -47 c-3 -7 -12 -14 -21 -16 -12 -2 -15 1 -11 12 7 19 38 22 32 4z m28 -43 c-19 -29 -59 -54 -50 -31 3 8 0 17 -6 21 -12 7 28 42 43 37 4 -1 11 6 14 15 7 17 8 17 11 0 2 -10 -3 -29 -12 -42z m-379 18 c-4 -3 -7 0 -7 7 0 7 3 10 7 7 3 -4 3 -10 0 -14z m220 -150 c-4 -3 -7 0 -7 7 0 7 3 10 7 7 3 -4 3 -10 0 -14z"/>
 <path d="M270 629 c0 -5 -4 -7 -10 -4 -11 7 -13 -6 -4 -29 3 -8 12 -13 20 -10 46 14 45 13 32 34 -14 21 -38 27 -38 9z"/>
 <path d="M313 582 c-19 -6 -20 -9 -8 -25 11 -15 17 -17 35 -7 17 9 19 14 9 26 -6 8 -12 14 -13 13 0 -1 -11 -4 -23 -7z"/>
 <path d="M274 549 c-3 -6 -1 -16 5 -22 8 -8 11 -5 11 11 0 24 -5 28 -16 11z"/>
 <path d="M220 44 c0 -6 7 -19 16 -30 14 -18 14 -18 3 6 -14 31 -19 36 -19 24z"/>
 <path d="M297 9 c7 -7 15 -10 18 -7 3 3 -2 9 -12 12 -14 6 -15 5 -6 -5z"/>
 <path d="M333 3 c4 -3 10 -3 14 0 3 4 0 7 -7 7 -7 0 -10 -3 -7 -7z"/>
 <path d="M473 3 c4 -3 10 -3 14 0 3 4 0 7 -7 7 -7 0 -10 -3 -7 -7z"/>
 </g>
<g id="layer111" fill="#a27b79" stroke="none">
 <path d="M0 330 l0 -330 84 0 c67 0 85 3 90 16 3 8 2 13 -3 10 -9 -6 -28 56 -41 139 -5 28 -11 61 -15 75 -5 19 -4 22 4 10 6 -8 15 -39 22 -68 10 -50 63 -172 75 -172 2 0 -3 14 -12 31 -9 18 -17 64 -20 108 l-4 76 13 -77 c7 -42 15 -79 17 -82 3 -2 5 44 4 102 0 59 1 78 3 42 4 -70 15 -90 45 -90 16 0 18 3 9 14 -16 19 -4 63 20 69 16 4 19 0 19 -32 0 -43 -23 -69 -56 -66 -15 1 -20 -3 -17 -14 11 -40 53 -71 97 -71 14 0 28 -4 31 -10 3 -5 11 -10 16 -10 6 0 8 4 5 9 -5 8 48 6 63 -3 4 -3 14 4 21 14 14 19 15 19 37 -2 19 -17 26 -19 36 -9 6 7 8 12 2 11 -26 -5 -35 2 -34 28 2 24 2 24 6 4 3 -15 10 -22 21 -20 14 3 17 14 15 63 -2 42 0 54 7 40 5 -11 9 -34 9 -52 1 -17 5 -34 10 -37 5 -3 7 -15 4 -26 -3 -12 0 -20 6 -20 16 0 6 74 -20 157 l-20 62 -36 -22 c-20 -12 -34 -17 -31 -11 4 5 3 16 -2 24 -8 14 26 50 48 50 6 0 13 6 15 13 3 6 6 -2 6 -20 1 -17 8 -39 17 -48 9 -9 27 -51 40 -93 l24 -77 -3 100 c-3 69 -9 110 -21 133 -9 17 -14 32 -11 32 2 0 13 -17 24 -37 l20 -38 1 38 c0 30 -7 45 -29 68 -39 39 -73 38 -38 -1 6 -8 -5 0 -25 19 -29 27 -35 38 -29 55 5 11 10 20 12 20 37 -15 77 -39 73 -46 -3 -4 -17 -1 -32 8 -24 15 -24 14 3 -7 16 -13 34 -24 40 -24 5 -1 9 -7 7 -14 -1 -7 2 -10 7 -7 5 4 9 78 10 166 l0 160 -64 0 -65 0 0 -39 0 -39 -51 24 c-70 34 -83 30 -90 -31 -3 -28 -7 -54 -9 -60 -2 -5 0 -22 4 -37 5 -15 3 -34 -3 -45 -6 -10 -11 -12 -11 -5 0 6 -6 12 -12 12 -7 0 -24 9 -38 19 -16 13 -30 17 -40 11 -13 -7 -22 1 -40 36 -14 24 -30 44 -37 44 -6 0 -15 5 -18 11 -5 7 5 8 29 4 41 -8 44 -1 16 35 -22 28 -25 41 -9 38 6 -2 13 2 16 8 3 9 -28 12 -107 13 l-110 2 0 -331z m620 206 c0 -3 -4 -8 -10 -11 -5 -3 -10 -1 -10 4 0 6 5 11 10 11 6 0 10 -2 10 -4z m-423 -33 c-4 -3 -10 -3 -14 0 -3 4 0 7 7 7 7 0 10 -3 7 -7z m268 -26 c66 -35 55 -34 -30 3 -39 17 -59 29 -45 27 14 -2 48 -15 75 -30z m162 -24 c-4 -3 -7 0 -7 7 0 7 3 10 7 7 3 -4 3 -10 0 -14z m-580 -15 c-3 -8 -6 -5 -6 6 -1 11 2 17 5 13 3 -3 4 -12 1 -19z m10 -45 c-4 -3 -7 0 -7 7 0 7 3 10 7 7 3 -4 3 -10 0 -14z m10 -30 c-4 -3 -7 0 -7 7 0 7 3 10 7 7 3 -4 3 -10 0 -14z m193 -7 c0 -3 -5 -8 -12 -12 -7 -4 -8 -3 -4 4 7 12 16 16 16 8z m-170 -41 c0 -5 -5 -3 -10 5 -5 8 -10 20 -10 25 0 6 5 3 10 -5 5 -8 10 -19 10 -25z m415 -55 c-32 -21 -38 -21 -29 4 3 9 17 16 33 16 l26 0 -30 -20z m-348 -17 c-4 -3 -7 0 -7 7 0 7 3 10 7 7 3 -4 3 -10 0 -14z m220 -145 c-3 -8 -6 -5 -6 6 -1 11 2 17 5 13 3 -3 4 -12 1 -19z m-57 -42 c0 -3 -5 -8 -12 -12 -7 -4 -8 -3 -4 4 7 12 16 16 16 8z"/>
 <path d="M263 625 c-16 -17 -6 -45 13 -39 46 14 45 13 32 34 -15 23 -28 25 -45 5z"/>
 <path d="M326 581 c-4 -5 -14 -7 -24 -4 -15 6 -16 5 -2 -13 8 -10 15 -21 17 -23 1 -2 10 4 19 13 11 12 13 21 6 28 -6 6 -12 6 -16 -1z"/>
 <path d="M274 549 c-3 -6 -1 -16 5 -22 8 -8 11 -5 11 11 0 24 -5 28 -16 11z"/>
 <path d="M220 44 c0 -6 7 -19 16 -30 14 -18 14 -18 3 6 -14 31 -19 36 -19 24z"/>
 <path d="M297 9 c7 -7 15 -10 18 -7 3 3 -2 9 -12 12 -14 6 -15 5 -6 -5z"/>
 <path d="M333 3 c4 -3 10 -3 14 0 3 4 0 7 -7 7 -7 0 -10 -3 -7 -7z"/>
 <path d="M473 3 c4 -3 10 -3 14 0 3 4 0 7 -7 7 -7 0 -10 -3 -7 -7z"/>
 </g>
<g id="layer112" fill="#95908e" stroke="none">
 <path d="M0 330 l0 -330 84 0 c67 0 85 3 90 16 3 8 2 13 -3 10 -9 -6 -28 56 -41 139 -5 28 -11 61 -15 75 -5 19 -4 22 4 10 6 -8 15 -39 22 -68 10 -50 63 -172 75 -172 2 0 -3 14 -12 31 -9 18 -17 64 -20 108 l-4 76 13 -77 c7 -42 15 -79 17 -82 3 -2 5 44 4 102 0 59 1 78 3 42 4 -70 15 -90 45 -90 16 0 18 3 9 14 -16 19 -4 63 20 69 16 4 19 0 19 -32 0 -43 -23 -69 -56 -66 -15 1 -20 -3 -17 -14 11 -40 53 -71 97 -71 14 0 28 -4 31 -10 3 -5 11 -10 16 -10 6 0 8 4 5 9 -5 8 48 6 63 -3 4 -3 14 4 21 14 14 19 15 19 37 -2 19 -17 26 -19 36 -9 6 7 8 12 2 11 -26 -5 -35 2 -34 28 2 24 2 24 6 4 3 -15 10 -22 21 -20 14 3 17 14 15 63 -2 42 0 54 7 40 5 -11 9 -34 9 -52 1 -17 5 -34 10 -37 5 -3 7 -15 4 -26 -3 -12 0 -20 6 -20 16 0 6 74 -21 158 l-20 62 -28 -20 c-15 -11 -34 -20 -42 -20 -10 0 -10 2 -1 8 7 5 9 13 3 21 -8 15 26 51 48 51 6 0 13 6 15 13 3 6 6 -2 6 -20 1 -17 8 -39 17 -48 9 -9 27 -51 40 -93 l24 -77 -3 100 c-3 69 -9 110 -21 133 -9 17 -14 32 -11 32 2 0 13 -17 24 -37 l20 -38 1 38 c0 30 -7 45 -29 68 -39 39 -73 38 -38 -1 6 -8 -5 0 -25 19 -29 27 -35 38 -29 55 5 11 10 20 12 20 37 -15 77 -39 73 -46 -3 -4 -17 -1 -32 8 -24 15 -24 14 3 -7 16 -13 34 -24 40 -24 5 -1 9 -7 7 -14 -1 -7 2 -10 7 -7 5 4 9 78 10 166 l0 160 -64 0 -65 0 0 -39 0 -39 -51 24 c-71 35 -82 30 -91 -36 -9 -67 -9 -67 -2 -111 4 -22 2 -39 -5 -43 -6 -4 -11 0 -11 8 0 9 -6 16 -12 16 -7 0 -24 9 -38 19 -16 13 -30 17 -40 11 -13 -7 -21 1 -40 34 -13 24 -35 48 -49 54 -23 10 -21 11 17 6 47 -6 51 0 22 36 -22 28 -25 41 -9 38 6 -2 13 2 16 8 3 9 -28 12 -107 13 l-110 2 0 -331z m620 206 c0 -3 -4 -8 -10 -11 -5 -3 -10 -1 -10 4 0 6 5 11 10 11 6 0 10 -2 10 -4z m-423 -33 c-4 -3 -10 -3 -14 0 -3 4 0 7 7 7 7 0 10 -3 7 -7z m268 -26 c66 -35 55 -34 -30 3 -39 17 -59 29 -45 27 14 -2 48 -15 75 -30z m162 -24 c-4 -3 -7 0 -7 7 0 7 3 10 7 7 3 -4 3 -10 0 -14z m-580 -15 c-3 -8 -6 -5 -6 6 -1 11 2 17 5 13 3 -3 4 -12 1 -19z m10 -45 c-4 -3 -7 0 -7 7 0 7 3 10 7 7 3 -4 3 -10 0 -14z m10 -30 c-4 -3 -7 0 -7 7 0 7 3 10 7 7 3 -4 3 -10 0 -14z m193 -7 c0 -3 -5 -8 -12 -12 -7 -4 -8 -3 -4 4 7 12 16 16 16 8z m-170 -41 c0 -5 -5 -3 -10 5 -5 8 -10 20 -10 25 0 6 5 3 10 -5 5 -8 10 -19 10 -25z m415 -55 c-32 -21 -38 -21 -29 4 3 9 17 16 33 16 l26 0 -30 -20z m-348 -17 c-4 -3 -7 0 -7 7 0 7 3 10 7 7 3 -4 3 -10 0 -14z m220 -145 c-3 -8 -6 -5 -6 6 -1 11 2 17 5 13 3 -3 4 -12 1 -19z m-57 -42 c0 -3 -5 -8 -12 -12 -7 -4 -8 -3 -4 4 7 12 16 16 16 8z"/>
 <path d="M263 625 c-16 -17 -6 -45 13 -39 46 14 45 13 32 34 -15 23 -28 25 -45 5z"/>
 <path d="M326 581 c-4 -5 -14 -7 -24 -4 -15 6 -16 5 -2 -13 8 -10 15 -21 17 -23 1 -2 10 4 19 13 11 12 13 21 6 28 -6 6 -12 6 -16 -1z"/>
 <path d="M274 549 c-3 -6 -1 -16 5 -22 8 -8 11 -5 11 11 0 24 -5 28 -16 11z"/>
 <path d="M220 44 c0 -6 7 -19 16 -30 14 -18 14 -18 3 6 -14 31 -19 36 -19 24z"/>
 <path d="M297 9 c7 -7 15 -10 18 -7 3 3 -2 9 -12 12 -14 6 -15 5 -6 -5z"/>
 <path d="M333 3 c4 -3 10 -3 14 0 3 4 0 7 -7 7 -7 0 -10 -3 -7 -7z"/>
 <path d="M473 3 c4 -3 10 -3 14 0 3 4 0 7 -7 7 -7 0 -10 -3 -7 -7z"/>
 </g>
<g id="layer113" fill="#778fad" stroke="none">
 <path d="M0 330 l0 -330 84 0 c67 0 85 3 90 16 3 8 2 13 -3 10 -9 -6 -28 56 -41 139 -5 28 -11 61 -15 75 -5 19 -4 22 4 10 6 -8 15 -39 22 -68 10 -50 63 -172 75 -172 2 0 -3 14 -12 31 -9 18 -17 64 -20 108 l-4 76 13 -77 c7 -42 15 -79 17 -82 3 -2 4 48 4 112 -1 99 -1 105 5 42 7 -85 13 -100 43 -100 16 0 18 3 9 14 -16 19 -4 63 20 69 16 4 19 0 19 -32 0 -43 -23 -69 -57 -66 -12 1 -21 -1 -20 -4 25 -57 68 -91 100 -78 7 3 21 -1 31 -9 12 -8 25 -10 35 -5 9 5 25 5 36 1 20 -7 45 9 45 30 0 6 11 -2 24 -17 20 -23 27 -26 38 -15 7 7 9 13 3 12 -27 -6 -35 2 -34 33 2 31 2 31 6 4 3 -20 9 -27 21 -25 14 3 17 14 15 63 -2 42 0 54 7 40 5 -11 9 -34 9 -52 1 -17 5 -34 10 -37 5 -3 7 -15 4 -26 -3 -12 0 -20 6 -20 16 0 6 74 -21 158 l-20 62 -25 -20 c-14 -11 -33 -20 -42 -19 -11 0 -12 2 -3 6 10 4 10 8 1 19 -9 11 -6 18 12 34 13 10 30 19 37 20 6 0 12 5 12 11 0 6 -15 1 -34 -10 -38 -24 -53 -27 -37 -8 6 8 8 17 4 20 -3 4 8 7 25 7 18 0 35 0 40 1 4 0 11 -17 16 -38 5 -21 13 -41 18 -44 5 -3 21 -42 34 -85 l24 -79 -3 100 c-3 69 -9 110 -21 133 -9 17 -14 32 -11 32 2 0 13 -17 24 -37 l20 -38 1 38 c0 30 -7 45 -29 68 -39 39 -73 38 -38 -1 6 -8 -4 0 -24 18 -29 27 -35 38 -31 62 3 24 7 28 17 20 9 -8 14 -7 18 2 4 9 6 8 6 -3 1 -9 12 -22 26 -29 13 -7 22 -17 19 -21 -3 -5 -17 -2 -32 7 -24 15 -24 14 3 -7 16 -13 34 -24 40 -24 5 -1 9 -7 7 -14 -1 -7 2 -10 7 -7 5 4 9 78 10 166 l0 160 -64 0 -65 0 0 -40 c0 -33 -3 -38 -17 -33 -17 6 -17 5 0 -14 16 -19 16 -20 -1 -36 -10 -10 -26 -17 -35 -17 -32 0 -26 -19 13 -41 57 -32 43 -34 -25 -4 -32 14 -61 25 -65 25 -4 0 -7 -17 -8 -37 -1 -36 -22 -75 -22 -41 0 9 -9 18 -20 21 -13 3 -18 1 -15 -6 3 -7 -2 -2 -11 11 -16 21 -62 33 -49 12 3 -5 2 -10 -3 -10 -5 0 -15 12 -21 28 -15 33 -40 64 -66 81 -17 10 -14 11 23 6 47 -8 50 -4 24 33 -10 15 -22 35 -25 45 -5 14 -20 17 -97 17 l-90 0 0 -330z m615 200 c-3 -5 -11 -10 -16 -10 -6 0 -7 5 -4 10 3 6 11 10 16 10 6 0 7 -4 4 -10z m-418 -27 c-4 -3 -10 -3 -14 0 -3 4 0 7 7 7 7 0 10 -3 7 -7z m430 -50 c-4 -3 -7 0 -7 7 0 7 3 10 7 7 3 -4 3 -10 0 -14z m-580 -15 c-3 -8 -6 -5 -6 6 -1 11 2 17 5 13 3 -3 4 -12 1 -19z m10 -45 c-4 -3 -7 0 -7 7 0 7 3 10 7 7 3 -4 3 -10 0 -14z m10 -30 c-4 -3 -7 0 -7 7 0 7 3 10 7 7 3 -4 3 -10 0 -14z m203 3 c0 -2 -8 -10 -17 -17 -16 -13 -17 -12 -4 4 13 16 21 21 21 13z m-180 -51 c0 -5 -5 -3 -10 5 -5 8 -10 20 -10 25 0 6 5 3 10 -5 5 -8 10 -19 10 -25z m67 -72 c-4 -3 -7 0 -7 7 0 7 3 10 7 7 3 -4 3 -10 0 -14z m360 -130 c-4 -3 -7 0 -7 7 0 7 3 10 7 7 3 -4 3 -10 0 -14z m-146 -34 l-9 -34 -1 31 c-1 17 2 34 6 37 12 13 14 -1 4 -34z m-47 -34 c3 -9 0 -12 -9 -9 -7 3 -16 12 -19 19 -3 9 0 12 9 9 7 -3 16 -12 19 -19z"/>
 <path d="M266 624 c-10 -27 -7 -44 9 -39 8 3 22 7 30 10 13 4 13 8 3 25 -15 24 -34 26 -42 4z"/>
 <path d="M326 582 c-3 -6 -1 -14 5 -17 15 -10 25 3 12 16 -7 7 -13 7 -17 1z"/>
 <path d="M400 580 c0 -7 3 -10 7 -7 3 4 3 10 0 14 -4 3 -7 0 -7 -7z"/>
 <path d="M220 44 c0 -6 7 -19 16 -30 14 -18 14 -18 3 6 -14 31 -19 36 -19 24z"/>
 <path d="M297 9 c7 -7 15 -10 18 -7 3 3 -2 9 -12 12 -14 6 -15 5 -6 -5z"/>
 <path d="M333 3 c4 -3 10 -3 14 0 3 4 0 7 -7 7 -7 0 -10 -3 -7 -7z"/>
 <path d="M473 3 c4 -3 10 -3 14 0 3 4 0 7 -7 7 -7 0 -10 -3 -7 -7z"/>
 </g>
<g id="layer114" fill="#8899b2" stroke="none">
 <path d="M0 330 l0 -330 86 0 c71 0 85 3 81 14 -12 30 -30 103 -37 151 -5 28 -12 61 -16 74 -5 16 -4 22 4 17 6 -3 13 -20 17 -36 6 -25 9 -28 25 -20 10 5 21 20 23 32 3 14 5 7 6 -16 1 -53 14 -37 22 27 l6 52 2 -68 c1 -78 13 -107 43 -107 16 0 18 3 9 14 -16 19 -4 63 20 69 16 4 19 0 19 -32 0 -43 -23 -69 -56 -66 -23 2 -23 -17 -1 -45 15 -20 73 -44 86 -36 5 4 13 2 16 -4 4 -6 14 -9 23 -6 10 3 36 6 60 8 30 1 42 6 42 17 0 11 4 10 15 -5 14 -18 14 -17 16 16 1 19 3 27 6 17 2 -9 9 -15 14 -12 5 4 10 0 11 -7 1 -7 4 14 8 47 5 53 7 57 14 30 4 -16 12 -39 17 -50 13 -28 3 23 -18 92 l-16 52 -25 -19 c-13 -11 -32 -20 -41 -19 -11 0 -12 2 -3 6 10 4 10 8 0 21 -10 12 -10 16 0 19 6 3 12 9 12 14 0 4 -8 5 -17 2 -15 -6 -16 -4 -6 9 7 8 10 17 7 20 -3 3 11 8 32 10 27 3 37 0 41 -11 5 -18 53 -132 72 -171 9 -21 11 -10 6 59 -5 91 -26 140 -82 194 -23 21 -29 34 -25 57 3 24 7 28 17 20 9 -8 14 -7 18 2 4 9 6 8 6 -3 1 -9 11 -21 24 -28 13 -7 31 -24 40 -39 l17 -27 -1 60 c-2 71 -7 97 -19 90 -4 -3 -7 6 -6 19 2 17 -1 23 -10 19 -22 -8 -16 5 7 18 12 6 19 7 16 2 -3 -5 -2 -15 3 -23 5 -8 8 18 9 63 l1 77 -65 0 -65 0 0 -40 c0 -33 -3 -38 -17 -33 -17 6 -17 5 0 -14 16 -19 16 -20 -1 -36 -10 -10 -26 -17 -35 -17 -32 0 -26 -19 13 -41 57 -32 43 -34 -25 -4 -32 14 -61 25 -65 25 -4 0 -7 -17 -8 -37 -1 -36 -22 -75 -22 -41 0 9 -9 18 -20 21 -13 3 -18 1 -15 -6 3 -7 -2 -2 -11 11 -16 21 -62 33 -49 12 3 -5 2 -10 -3 -10 -5 0 -15 12 -21 28 -15 33 -40 64 -66 81 -17 10 -14 11 23 6 47 -8 50 -4 24 33 -10 15 -22 35 -25 45 -5 14 -20 17 -97 17 l-90 0 0 -330z m47 188 c-3 -8 -6 -5 -6 6 -1 11 2 17 5 13 3 -3 4 -12 1 -19z m150 -15 c-4 -3 -10 -3 -14 0 -3 4 0 7 7 7 7 0 10 -3 7 -7z m-23 -38 c-4 -15 -1 -32 7 -43 12 -16 12 -16 -5 0 -13 11 -17 24 -12 42 3 14 9 26 11 26 3 0 3 -11 -1 -25z m23 3 c-3 -8 -6 -5 -6 6 -1 11 2 17 5 13 3 -3 4 -12 1 -19z m430 -15 c-4 -3 -7 0 -7 7 0 7 3 10 7 7 3 -4 3 -10 0 -14z m-580 -15 c-3 -8 -6 -5 -6 6 -1 11 2 17 5 13 3 -3 4 -12 1 -19z m160 -15 c-4 -3 -7 0 -7 7 0 7 3 10 7 7 3 -4 3 -10 0 -14z m-150 -25 c-3 -8 -6 -5 -6 6 -1 11 2 17 5 13 3 -3 4 -12 1 -19z m113 2 c0 -5 -2 -10 -4 -10 -3 0 -8 5 -11 10 -3 6 -1 10 4 10 6 0 11 -4 11 -10z m43 -10 c-3 -12 -8 -19 -11 -16 -5 6 5 36 12 36 2 0 2 -9 -1 -20z m-146 -27 c-4 -3 -7 0 -7 7 0 7 3 10 7 7 3 -4 3 -10 0 -14z m112 -40 c-1 -53 -6 -49 -11 10 -2 20 0 37 4 37 4 0 8 -21 7 -47z m91 43 c0 -2 -8 -10 -17 -17 -16 -13 -17 -12 -4 4 13 16 21 21 21 13z m-161 -91 c0 -5 -8 6 -19 25 -11 19 -19 40 -19 45 0 6 8 -6 19 -25 11 -19 19 -39 19 -45z m38 48 c-4 -3 -7 0 -7 7 0 7 3 10 7 7 3 -4 3 -10 0 -14z m13 -77 c0 -51 -6 -43 -14 19 -4 34 -3 45 4 35 5 -8 10 -33 10 -54z m457 -113 c-4 -3 -7 0 -7 7 0 7 3 10 7 7 3 -4 3 -10 0 -14z m-100 -20 c-4 -3 -7 0 -7 7 0 7 3 10 7 7 3 -4 3 -10 0 -14z m-146 -34 l-9 -34 -1 31 c-1 17 2 34 6 37 12 13 14 -1 4 -34z m166 -6 c-4 -3 -7 0 -7 7 0 7 3 10 7 7 3 -4 3 -10 0 -14z m-213 -28 c3 -9 0 -12 -9 -9 -7 3 -16 12 -19 19 -3 9 0 12 9 9 7 -3 16 -12 19 -19z"/>
 <path d="M264 615 c-8 -31 -6 -34 23 -26 21 6 21 6 3 29 l-19 23 -7 -26z"/>
 <path d="M400 580 c0 -7 3 -10 7 -7 3 4 3 10 0 14 -4 3 -7 0 -7 -7z"/>
 <path d="M325 570 c3 -5 11 -10 16 -10 6 0 7 5 4 10 -3 6 -11 10 -16 10 -6 0 -7 -4 -4 -10z"/>
 <path d="M565 351 c-3 -5 -1 -13 5 -16 6 -4 24 -30 40 -58 l30 -52 0 35 c0 20 -7 46 -16 58 -19 28 -51 45 -59 33z"/>
 <path d="M514 265 c-18 -14 -18 -14 4 -8 12 3 22 9 22 14 0 12 -3 11 -26 -6z"/>
 <path d="M155 135 c8 -37 25 -57 25 -30 0 11 -8 29 -17 40 -15 19 -15 19 -8 -10z"/>
 <path d="M201 134 c0 -11 3 -14 6 -6 3 7 2 16 -1 19 -3 4 -6 -2 -5 -13z"/>
 </g>
<g id="layer115" fill="#ac9896" stroke="none">
 <path d="M0 330 l0 -330 85 0 85 0 -11 28 c-6 15 -17 65 -25 111 -9 46 -24 107 -36 135 -47 117 -58 160 -57 220 l2 61 7 -55 c9 -71 37 -176 60 -219 l17 -34 7 59 c7 56 19 136 29 179 6 30 37 32 37 3 1 -13 7 -39 14 -59 9 -26 10 -42 3 -55 -9 -15 -12 -13 -29 17 l-19 34 7 -30 c8 -32 10 -63 13 -159 1 -71 7 -69 20 5 l9 54 1 -68 c1 -78 13 -107 43 -107 16 0 18 3 9 14 -16 19 -4 63 20 69 16 4 19 0 19 -33 0 -38 -17 -62 -47 -66 -23 -4 -26 -10 -13 -34 12 -22 77 -56 88 -46 3 3 11 1 19 -6 21 -17 35 4 27 38 -6 25 -8 26 -15 9 -6 -16 -8 -14 -8 12 -1 17 3 35 9 38 5 3 10 0 10 -7 0 -7 7 -26 15 -42 8 -15 12 -32 9 -37 -6 -10 11 -11 44 -3 12 4 22 14 22 23 1 14 2 14 14 -2 18 -24 26 -21 26 9 0 15 9 34 20 44 13 12 21 31 22 59 2 51 -4 57 -34 37 -12 -9 -29 -16 -38 -16 -12 0 -12 2 -1 9 10 6 10 10 1 16 -6 4 -9 13 -6 21 3 8 1 14 -3 14 -5 0 -7 9 -4 19 3 13 16 20 40 23 36 4 35 6 58 -61 4 -10 9 -10 19 -2 7 6 16 8 19 4 4 -3 7 5 7 19 0 25 -40 88 -77 120 -23 21 -21 87 2 68 9 -8 14 -7 18 2 4 9 6 8 6 -3 1 -8 19 -25 41 -38 40 -22 40 -22 40 -2 0 20 -23 89 -40 122 -5 10 0 22 16 38 18 18 24 34 24 67 l0 44 -65 0 -65 0 0 -40 c0 -33 -3 -38 -17 -33 -17 6 -17 5 0 -14 16 -19 16 -20 -1 -36 -10 -10 -26 -17 -35 -17 -32 0 -26 -19 13 -41 57 -32 43 -34 -25 -4 -32 14 -61 25 -65 25 -4 0 -7 -17 -8 -37 -1 -36 -22 -75 -22 -41 0 9 -9 18 -20 21 -13 3 -18 1 -15 -6 3 -7 -2 -2 -11 11 -16 21 -62 33 -49 12 3 -5 2 -10 -3 -10 -5 0 -15 12 -21 28 -15 33 -40 64 -66 81 -17 10 -14 11 23 6 47 -8 50 -4 24 33 -10 15 -22 35 -25 45 -5 14 -19 17 -71 17 -53 0 -65 -3 -69 -17 -4 -17 -5 -17 -6 0 -1 10 -9 17 -21 17 -20 0 -20 -7 -20 -330z m270 36 c0 -2 -8 -10 -17 -17 -16 -13 -17 -12 -4 4 13 16 21 21 21 13z m252 -248 c-7 -7 -12 -8 -12 -2 0 14 12 26 19 19 2 -3 -1 -11 -7 -17z m-65 -25 c-4 -3 -7 0 -7 7 0 7 3 10 7 7 3 -4 3 -10 0 -14z m-134 -48 c4 -8 -1 -11 -12 -8 -10 2 -18 10 -18 18 0 16 23 9 30 -10z"/>
 <path d="M264 616 c-8 -22 -1 -28 26 -24 l22 3 -21 19 c-19 17 -21 17 -27 2z"/>
 <path d="M400 580 c0 -7 3 -10 7 -7 3 4 3 10 0 14 -4 3 -7 0 -7 -7z"/>
 <path d="M335 570 c3 -5 8 -10 11 -10 3 0 2 5 -1 10 -3 6 -8 10 -11 10 -3 0 -2 -4 1 -10z"/>
 <path d="M631 534 c0 -11 3 -14 6 -6 3 7 2 16 -1 19 -3 4 -6 -2 -5 -13z"/>
 <path d="M570 351 c0 -5 16 -32 35 -61 31 -47 35 -49 35 -26 0 15 -7 38 -16 52 -18 27 -54 51 -54 35z"/>
 <path d="M157 333 c-4 -3 -7 -11 -7 -17 0 -6 5 -5 12 2 6 6 9 14 7 17 -3 3 -9 2 -12 -2z"/>
 <path d="M163 255 c0 -27 2 -38 4 -22 2 15 2 37 0 50 -2 12 -4 0 -4 -28z"/>
 <path d="M520 270 c-9 -6 -10 -10 -3 -10 6 0 15 5 18 10 8 12 4 12 -15 0z"/>
 <path d="M137 219 c4 -13 8 -18 11 -10 2 7 -1 18 -6 23 -8 8 -9 4 -5 -13z"/>
 <path d="M590 194 c0 -8 4 -12 10 -9 5 3 12 -7 16 -22 9 -45 12 -50 13 -23 1 39 -10 70 -25 70 -8 0 -14 -7 -14 -16z"/>
 <path d="M156 125 c4 -8 11 -15 16 -15 6 0 5 6 -2 15 -7 8 -14 15 -16 15 -2 0 -1 -7 2 -15z"/>
 <path d="M570 120 c0 -7 3 -10 7 -7 3 4 3 10 0 14 -4 3 -7 0 -7 -7z"/>
 <path d="M540 60 c0 -7 3 -10 7 -7 3 4 3 10 0 14 -4 3 -7 0 -7 -7z"/>
 </g>
<g id="layer116" fill="#8c9ec2" stroke="none">
 <path d="M0 330 l0 -330 85 0 85 0 -11 28 c-6 15 -17 65 -25 111 -9 46 -24 107 -36 135 -47 117 -58 160 -57 220 l2 61 7 -55 c9 -71 37 -176 60 -219 l17 -34 7 59 c7 56 19 136 29 179 6 30 37 32 37 3 1 -13 7 -39 14 -59 9 -26 10 -42 3 -55 -9 -15 -12 -13 -29 17 l-19 34 7 -30 c8 -32 10 -63 13 -159 1 -72 8 -69 20 10 l9 59 1 -73 c0 -40 6 -82 11 -93 14 -25 44 -26 35 0 -8 26 10 68 29 68 12 0 16 -10 16 -37 0 -39 -24 -70 -53 -70 -9 0 -17 -5 -17 -10 0 -17 47 -60 67 -62 33 -2 38 -3 51 -12 23 -14 36 9 23 41 -11 28 -11 28 -6 -7 4 -27 3 -30 -4 -15 -13 27 -13 85 -1 85 6 0 10 -6 10 -12 0 -7 7 -26 15 -42 8 -15 12 -32 9 -37 -6 -10 11 -11 44 -3 12 4 22 14 22 23 1 14 2 14 14 -2 18 -23 29 -22 21 2 -4 13 3 28 20 45 18 18 26 37 27 66 2 50 -4 56 -34 36 -12 -9 -32 -16 -43 -15 -19 0 -19 1 -1 8 14 6 16 10 7 15 -7 5 -10 14 -7 22 3 8 1 14 -3 14 -5 0 -7 9 -4 19 3 13 16 20 40 23 36 4 35 6 58 -61 4 -10 9 -10 19 -2 7 6 16 8 19 4 4 -3 7 5 7 18 0 30 -18 58 -79 123 -25 28 -38 44 -28 37 15 -12 17 -11 17 12 0 18 -8 29 -32 40 -42 19 -81 32 -90 29 -5 -1 -8 3 -8 8 0 6 -4 10 -8 10 -4 0 -8 -19 -9 -42 -2 -47 -19 -71 -33 -48 -5 8 -6 18 -4 22 3 4 2 8 -3 9 -29 3 -48 9 -51 18 -2 6 -8 11 -13 11 -6 0 -7 -4 -4 -10 3 -5 -1 -10 -9 -10 -8 0 -18 9 -21 21 -4 11 -26 39 -48 61 l-42 41 44 -7 44 -7 -17 26 c-9 14 -23 36 -32 50 -14 22 -23 25 -74 25 -47 0 -59 -3 -63 -17 -4 -17 -5 -17 -6 0 -1 10 -9 17 -21 17 -20 0 -20 -7 -20 -330z m465 100 c10 -11 16 -20 13 -20 -3 0 -13 9 -23 20 -10 11 -16 20 -13 20 3 0 13 -9 23 -20z m-18 -37 c-4 -3 -10 -3 -14 0 -3 4 0 7 7 7 7 0 10 -3 7 -7z m-177 -27 c0 -2 -8 -10 -17 -17 -16 -13 -17 -12 -4 4 13 16 21 21 21 13z m-30 -40 c0 -3 -5 -8 -12 -12 -7 -4 -8 -3 -4 4 7 12 16 16 16 8z m227 -33 c-4 -3 -10 -3 -14 0 -3 4 0 7 7 7 7 0 10 -3 7 -7z m47 -182 c-15 -15 -16 -14 -10 2 3 10 6 28 7 40 0 21 1 21 10 -2 7 -19 6 -28 -7 -40z m-44 -5 c0 -3 -4 -8 -10 -11 -5 -3 -10 -1 -10 4 0 6 5 11 10 11 6 0 10 -2 10 -4z m-146 -62 c3 -7 -3 -10 -15 -7 -11 3 -17 8 -14 11 3 3 -3 14 -12 26 -18 20 -18 20 9 0 15 -10 29 -24 32 -30z"/>
 <path d="M510 629 c0 -17 5 -40 11 -52 12 -22 12 -22 -10 -3 -22 20 -30 9 -9 -12 9 -9 8 -15 -8 -27 -10 -8 -26 -15 -35 -15 -32 0 -27 -13 14 -40 23 -14 48 -34 56 -44 11 -13 16 -14 22 -4 7 10 9 9 9 -3 0 -8 18 -25 40 -38 40 -22 40 -22 40 -2 0 20 -23 89 -40 122 -5 10 0 22 16 38 18 18 24 34 24 67 l0 44 -65 0 -65 0 0 -31z"/>
 <path d="M264 616 c-8 -22 -1 -28 26 -24 l22 3 -21 19 c-19 17 -21 17 -27 2z"/>
 <path d="M335 570 c3 -5 8 -10 11 -10 3 0 2 5 -1 10 -3 6 -8 10 -11 10 -3 0 -2 -4 1 -10z"/>
 <path d="M631 534 c0 -11 3 -14 6 -6 3 7 2 16 -1 19 -3 4 -6 -2 -5 -13z"/>
 <path d="M570 351 c0 -5 16 -32 35 -61 31 -47 35 -49 35 -26 0 15 -7 38 -16 52 -18 27 -54 51 -54 35z"/>
 <path d="M157 333 c-4 -3 -7 -11 -7 -17 0 -6 5 -5 12 2 6 6 9 14 7 17 -3 3 -9 2 -12 -2z"/>
 <path d="M163 255 c0 -27 2 -38 4 -22 2 15 2 37 0 50 -2 12 -4 0 -4 -28z"/>
 <path d="M520 270 c-9 -6 -10 -10 -3 -10 6 0 15 5 18 10 8 12 4 12 -15 0z"/>
 <path d="M137 219 c4 -13 8 -18 11 -10 2 7 -1 18 -6 23 -8 8 -9 4 -5 -13z"/>
 <path d="M590 194 c0 -8 4 -12 10 -9 5 3 12 -7 16 -22 9 -45 12 -50 13 -23 1 39 -10 70 -25 70 -8 0 -14 -7 -14 -16z"/>
 <path d="M156 125 c4 -8 11 -15 16 -15 6 0 5 6 -2 15 -7 8 -14 15 -16 15 -2 0 -1 -7 2 -15z"/>
 <path d="M570 120 c0 -7 3 -10 7 -7 3 4 3 10 0 14 -4 3 -7 0 -7 -7z"/>
 <path d="M540 60 c0 -7 3 -10 7 -7 3 4 3 10 0 14 -4 3 -7 0 -7 -7z"/>
 </g>
<g id="layer117" fill="#ada0a2" stroke="none">
 <path d="M0 330 l0 -330 85 0 85 0 -11 28 c-6 15 -17 65 -25 111 -9 46 -24 107 -36 135 -47 118 -58 160 -56 220 1 38 3 48 5 26 6 -49 41 -196 55 -225 12 -27 24 -33 25 -12 1 34 25 182 33 203 12 31 40 32 40 2 1 -13 7 -40 14 -60 11 -31 11 -41 0 -55 -7 -10 -14 -13 -14 -7 0 5 -7 19 -15 30 -13 17 -13 16 -5 -16 5 -19 8 -46 8 -60 -2 -58 2 -133 8 -127 3 3 10 30 14 59 l8 53 1 -73 c0 -40 6 -82 11 -93 14 -25 44 -26 35 0 -8 26 10 68 29 68 12 0 16 -10 16 -37 0 -39 -24 -70 -53 -70 -9 0 -17 -5 -17 -10 0 -17 47 -60 67 -62 33 -2 38 -3 51 -12 23 -14 36 9 23 41 -11 28 -11 28 -6 -7 4 -27 3 -30 -4 -15 -13 27 -13 85 -1 85 6 0 10 -6 10 -12 0 -7 7 -26 15 -42 8 -15 12 -33 8 -38 -10 -18 50 1 64 19 11 15 13 15 19 0 8 -23 27 -21 20 1 -4 12 3 30 19 48 23 27 31 55 25 94 -3 23 -7 23 -32 6 -12 -9 -32 -16 -43 -15 -19 0 -19 1 -1 8 14 6 16 10 7 15 -7 5 -10 14 -7 22 3 8 1 14 -3 14 -5 0 -7 9 -4 19 3 13 16 20 40 23 36 4 35 6 58 -60 4 -10 9 -10 24 0 13 8 17 17 12 27 -5 9 -7 21 -4 27 2 5 -23 39 -54 75 -32 35 -50 58 -40 50 15 -12 17 -11 17 12 0 18 -8 29 -32 40 -42 19 -81 32 -90 29 -5 -1 -8 3 -8 8 0 6 -4 10 -8 10 -4 0 -8 -19 -9 -42 -2 -47 -19 -71 -33 -48 -5 8 -6 18 -4 22 3 4 2 8 -3 9 -29 3 -48 9 -51 18 -2 6 -8 11 -13 11 -6 0 -7 -4 -4 -10 3 -5 -1 -10 -9 -10 -8 0 -18 9 -21 21 -4 11 -26 39 -48 61 l-42 41 44 -7 44 -7 -17 26 c-9 14 -23 36 -32 50 -14 22 -23 25 -74 25 -47 0 -59 -3 -63 -17 -4 -17 -5 -17 -6 0 -1 10 -9 17 -21 17 -20 0 -20 -7 -20 -330z m87 283 c-4 -3 -7 0 -7 7 0 7 3 10 7 7 3 -4 3 -10 0 -14z m378 -183 c10 -11 16 -20 13 -20 -3 0 -13 9 -23 20 -10 11 -16 20 -13 20 3 0 13 -9 23 -20z m-18 -37 c-4 -3 -10 -3 -14 0 -3 4 0 7 7 7 7 0 10 -3 7 -7z m-177 -27 c0 -2 -8 -10 -17 -17 -16 -13 -17 -12 -4 4 13 16 21 21 21 13z m-30 -40 c0 -3 -5 -8 -12 -12 -7 -4 -8 -3 -4 4 7 12 16 16 16 8z m227 -33 c-4 -3 -10 -3 -14 0 -3 4 0 7 7 7 7 0 10 -3 7 -7z m47 -182 c-15 -15 -16 -14 -10 2 3 10 6 28 7 40 0 21 1 21 10 -2 7 -19 6 -28 -7 -40z m-44 -5 c0 -3 -4 -8 -10 -11 -5 -3 -10 -1 -10 4 0 6 5 11 10 11 6 0 10 -2 10 -4z m-146 -62 c3 -7 -3 -10 -15 -7 -11 3 -17 8 -14 11 3 3 -3 14 -12 26 -18 20 -18 20 9 0 15 -10 29 -24 32 -30z"/>
 <path d="M510 629 c0 -17 5 -40 11 -52 12 -22 12 -22 -10 -3 -22 20 -30 9 -9 -12 9 -9 8 -15 -8 -27 -10 -8 -26 -15 -35 -15 -32 0 -27 -13 14 -40 23 -14 48 -34 56 -44 11 -13 16 -14 22 -4 7 10 9 9 9 -3 0 -8 18 -25 40 -38 40 -22 40 -22 40 -2 0 20 -23 89 -40 122 -5 10 0 22 16 38 18 18 24 34 24 67 l0 44 -65 0 -65 0 0 -31z"/>
 <path d="M260 605 c0 -10 10 -15 26 -15 22 0 25 2 14 15 -7 8 -19 15 -26 15 -8 0 -14 -7 -14 -15z"/>
 <path d="M335 570 c3 -5 8 -10 11 -10 3 0 2 5 -1 10 -3 6 -8 10 -11 10 -3 0 -2 -4 1 -10z"/>
 <path d="M574 347 c1 -6 13 -29 28 -50 20 -30 27 -34 32 -22 3 9 -2 27 -11 41 -19 29 -52 50 -49 31z"/>
 <path d="M520 270 c-9 -6 -10 -10 -3 -10 6 0 15 5 18 10 8 12 4 12 -15 0z"/>
 <path d="M161 234 c0 -11 3 -14 6 -6 3 7 2 16 -1 19 -3 4 -6 -2 -5 -13z"/>
 </g>
<g id="layer118" fill="#93a8ba" stroke="none">
 <path d="M0 330 l0 -330 84 0 85 0 -14 43 c-7 23 -20 78 -28 123 -8 44 -29 114 -47 155 -27 60 -34 89 -36 154 -1 44 0 64 2 45 8 -53 43 -197 56 -225 12 -27 24 -33 25 -12 1 34 25 182 33 203 12 31 40 32 40 2 1 -13 7 -40 14 -60 11 -31 11 -41 0 -55 -7 -10 -14 -13 -14 -7 0 5 -7 19 -15 30 -13 17 -13 16 -5 -16 5 -19 8 -46 8 -60 -1 -14 0 -50 1 -80 2 -41 5 -50 11 -35 5 11 9 36 9 56 1 19 8 44 17 55 15 18 15 18 5 -3 -14 -28 -14 -148 -1 -174 13 -23 45 -27 36 -4 -9 26 5 77 20 71 8 -3 15 0 15 7 1 7 5 -6 9 -28 7 -35 5 -43 -16 -66 -24 -25 -24 -26 -5 -43 11 -10 24 -15 30 -11 7 3 8 0 5 -9 -3 -9 -13 -16 -21 -16 -8 0 -12 4 -9 9 7 10 -42 57 -50 48 -12 -12 25 -55 56 -65 18 -7 28 -7 25 -2 -10 16 7 11 27 -7 27 -24 44 -4 29 34 -11 27 -11 27 -5 -7 4 -26 3 -31 -5 -20 -6 8 -11 42 -11 75 0 42 3 56 10 45 5 -8 10 -24 10 -35 0 -11 7 -33 15 -49 8 -15 12 -32 9 -37 -7 -12 8 -11 41 1 27 10 28 18 10 63 -4 9 -3 17 2 17 6 0 15 -18 22 -40 14 -46 30 -54 23 -12 -2 15 1 51 6 79 l9 52 -31 -5 c-17 -3 -26 -2 -20 3 12 9 14 53 2 53 -4 0 -2 14 4 30 8 25 13 28 24 19 8 -6 21 -9 29 -5 15 5 19 0 40 -62 4 -10 9 -10 24 0 14 9 17 16 11 29 -5 9 -7 19 -3 22 9 10 -59 88 -120 137 -31 24 -54 46 -52 48 2 3 22 -10 45 -28 34 -27 41 -29 46 -15 4 10 -1 21 -12 30 -23 17 -94 38 -101 31 -4 -3 -11 1 -17 9 -9 12 -11 9 -12 -18 -1 -49 -11 -67 -36 -67 -18 0 -20 2 -9 9 12 8 9 12 -15 23 -16 7 -35 20 -42 28 -8 8 -11 9 -7 3 4 -8 0 -13 -9 -13 -9 0 -22 13 -31 29 -8 17 -30 44 -47 62 l-33 31 43 -6 c34 -5 41 -4 35 6 -5 7 -19 30 -32 51 -22 36 -25 37 -81 37 -47 0 -59 -3 -63 -17 -4 -17 -5 -17 -6 0 -1 10 -9 17 -21 17 -20 0 -20 -7 -20 -330z m87 283 c-4 -3 -7 0 -7 7 0 7 3 10 7 7 3 -4 3 -10 0 -14z m-50 -25 c-3 -8 -6 -5 -6 6 -1 11 2 17 5 13 3 -3 4 -12 1 -19z m270 -165 c-4 -3 -10 -3 -14 0 -3 4 0 7 7 7 7 0 10 -3 7 -7z m140 -30 c-4 -3 -10 -3 -14 0 -3 4 0 7 7 7 7 0 10 -3 7 -7z m38 -13 c3 -5 4 -10 1 -10 -3 0 -8 5 -11 10 -3 6 -4 10 -1 10 3 0 8 -4 11 -10z m-205 -3 c0 -2 -10 -12 -22 -23 l-23 -19 19 23 c18 21 26 27 26 19z m245 -67 c3 -5 4 -10 1 -10 -3 0 -8 5 -11 10 -3 6 -4 10 -1 10 3 0 8 -4 11 -10z m-55 -14 c0 -3 -4 -8 -10 -11 -5 -3 -10 -1 -10 4 0 6 5 11 10 11 6 0 10 -2 10 -4z m-183 -73 c-4 -3 -10 -3 -14 0 -3 4 0 7 7 7 7 0 10 -3 7 -7z"/>
 <path d="M510 627 c0 -27 8 -41 39 -69 l40 -35 25 26 c20 20 26 38 26 69 l0 42 -65 0 -65 0 0 -33z"/>
 <path d="M260 605 c0 -10 10 -15 26 -15 22 0 25 2 14 15 -7 8 -19 15 -26 15 -8 0 -14 -7 -14 -15z"/>
 <path d="M335 570 c3 -5 8 -10 11 -10 3 0 2 5 -1 10 -3 6 -8 10 -11 10 -3 0 -2 -4 1 -10z"/>
 <path d="M512 560 c2 -8 -6 -23 -19 -33 -18 -15 -21 -22 -13 -38 6 -10 17 -19 25 -19 8 0 15 -4 15 -9 0 -5 9 -13 20 -16 11 -3 20 -12 20 -19 0 -7 18 -22 40 -34 36 -19 40 -19 39 -4 -1 27 -36 128 -42 122 -3 -3 -16 4 -29 15 -13 12 -32 27 -42 35 -17 13 -19 13 -14 0z m56 -85 c-6 -14 -13 -23 -15 -21 -5 5 15 46 22 46 3 0 -1 -11 -7 -25z"/>
 <path d="M574 347 c1 -6 13 -29 28 -50 20 -30 27 -34 32 -22 3 9 -2 27 -11 41 -19 29 -52 50 -49 31z"/>
 <path d="M520 270 c-9 -6 -10 -10 -3 -10 6 0 15 5 18 10 8 12 4 12 -15 0z"/>
 <path d="M161 234 c0 -11 3 -14 6 -6 3 7 2 16 -1 19 -3 4 -6 -2 -5 -13z"/>
 <path d="M530 175 c0 -22 -3 -51 -6 -65 -6 -24 -6 -24 8 -5 22 29 27 72 12 92 -12 16 -13 13 -14 -22z"/>
 </g>
<g id="layer119" fill="#92b0c5" stroke="none">
 <path d="M0 330 l0 -330 85 0 84 0 -13 38 c-7 20 -19 71 -26 112 -7 41 -27 111 -45 155 -42 103 -45 119 -47 248 -1 97 -3 107 -20 107 -17 0 -18 -17 -18 -330z"/>
 <path d="M51 574 c-1 -87 4 -115 41 -236 22 -73 32 -84 36 -40 3 46 24 166 33 190 10 25 6 27 -23 11 -15 -8 -19 -8 -14 0 4 6 2 11 -4 11 -6 0 -8 5 -5 10 3 6 2 10 -2 10 -5 0 -17 15 -27 34 -14 26 -16 38 -7 54 16 30 14 42 -8 42 -17 0 -19 -9 -20 -86z"/>
 <path d="M98 633 c-4 -71 20 -122 54 -115 45 9 65 -30 68 -132 1 -22 -11 -36 -17 -20 -2 6 -10 20 -18 30 -14 17 -14 17 -5 -9 5 -16 10 -67 11 -115 1 -59 4 -79 9 -62 4 14 8 39 9 56 1 16 8 39 17 50 15 18 15 18 5 -3 -14 -28 -14 -148 -1 -174 13 -23 45 -27 36 -4 -9 26 5 77 20 71 8 -3 15 0 15 7 1 7 5 -6 9 -28 7 -35 5 -43 -18 -68 -14 -15 -27 -37 -29 -50 -2 -17 -1 -19 6 -7 5 8 7 19 4 25 -4 5 3 2 15 -8 11 -11 26 -16 32 -12 9 6 9 2 0 -15 -9 -17 -9 -21 0 -15 6 4 20 -1 30 -10 10 -9 24 -14 29 -10 13 8 14 32 2 39 -5 4 -7 -4 -4 -16 4 -20 3 -21 -7 -5 -6 9 -9 43 -8 75 4 51 5 54 12 26 8 -30 10 -32 50 -28 42 4 43 4 55 -36 14 -46 30 -54 23 -12 -2 15 1 51 6 79 l9 52 -31 -5 c-17 -3 -26 -2 -20 3 12 9 14 53 2 53 -4 0 -2 13 3 29 9 26 12 27 34 17 13 -6 21 -15 18 -20 -4 -5 -1 -6 6 -2 6 4 9 12 5 17 -3 6 2 9 11 7 12 -2 19 5 21 19 3 18 -12 36 -70 85 -77 66 -97 94 -26 38 34 -27 41 -29 46 -15 4 10 -1 21 -12 30 -23 17 -94 38 -101 31 -4 -3 -11 1 -17 9 -9 12 -11 9 -12 -18 -1 -49 -11 -67 -36 -67 -18 0 -20 2 -9 9 12 8 9 12 -15 23 -16 7 -35 20 -42 28 -8 8 -11 9 -7 3 4 -8 0 -13 -9 -13 -9 0 -22 13 -31 29 -8 17 -30 44 -47 62 l-33 31 43 -6 c34 -5 41 -4 35 6 -5 7 -19 30 -32 51 -19 31 -28 37 -57 37 -30 0 -34 -3 -36 -27z m209 -210 c-4 -3 -10 -3 -14 0 -3 4 0 7 7 7 7 0 10 -3 7 -7z m140 -30 c-4 -3 -10 -3 -14 0 -3 4 0 7 7 7 7 0 10 -3 7 -7z m38 -13 c3 -5 4 -10 1 -10 -3 0 -8 5 -11 10 -3 6 -4 10 -1 10 3 0 8 -4 11 -10z m-205 -3 c0 -2 -10 -12 -22 -23 l-23 -19 19 23 c18 21 26 27 26 19z m245 -67 c3 -5 4 -10 1 -10 -3 0 -8 5 -11 10 -3 6 -4 10 -1 10 3 0 8 -4 11 -10z m-55 -14 c0 -3 -4 -8 -10 -11 -5 -3 -10 -1 -10 4 0 6 5 11 10 11 6 0 10 -2 10 -4z m-183 -73 c-4 -3 -10 -3 -14 0 -3 4 0 7 7 7 7 0 10 -3 7 -7z"/>
 <path d="M510 627 c0 -27 8 -41 39 -69 l40 -35 25 26 c20 20 26 38 26 69 l0 42 -65 0 -65 0 0 -33z"/>
 <path d="M266 612 c-3 -4 4 -9 15 -9 23 -2 25 3 4 10 -8 4 -16 3 -19 -1z"/>
 <path d="M512 560 c2 -8 -6 -23 -19 -33 -18 -15 -21 -22 -13 -38 6 -10 17 -19 25 -19 8 0 15 -4 15 -9 0 -5 9 -13 20 -16 11 -3 20 -12 20 -19 0 -7 18 -22 40 -34 26 -13 40 -17 40 -9 0 22 -36 128 -42 125 -4 -2 -17 6 -30 17 -13 12 -32 27 -42 35 -17 13 -19 13 -14 0z m56 -85 c-6 -14 -13 -23 -15 -21 -5 5 15 46 22 46 3 0 -1 -11 -7 -25z"/>
 <path d="M574 347 c1 -6 13 -29 28 -50 28 -42 45 -31 22 15 -16 30 -54 57 -50 35z"/>
 <path d="M585 285 c9 -16 12 -24 4 -17 -7 6 -17 12 -21 12 -12 0 -9 -48 4 -56 7 -4 8 -3 4 4 -13 21 5 35 19 16 11 -16 12 -15 10 10 -2 16 -11 36 -21 45 -16 15 -16 14 1 -14z"/>
 <path d="M160 230 c0 -7 3 -10 7 -7 3 4 3 10 0 14 -4 3 -7 0 -7 -7z"/>
 <path d="M530 180 c0 -18 4 -29 10 -25 6 3 10 15 10 25 0 10 -4 22 -10 25 -6 4 -10 -7 -10 -25z"/>
 <path d="M524 108 c-4 -7 -3 -8 4 -4 7 4 12 9 12 12 0 8 -9 4 -16 -8z"/>
 <path d="M440 80 c0 -5 5 -10 10 -10 6 0 10 5 10 10 0 6 -4 10 -10 10 -5 0 -10 -4 -10 -10z"/>
 <path d="M415 70 c3 -5 8 -10 11 -10 3 0 2 5 -1 10 -3 6 -8 10 -11 10 -3 0 -2 -4 1 -10z"/>
 <path d="M280 60 c0 -5 5 -10 11 -10 5 0 7 5 4 10 -3 6 -8 10 -11 10 -2 0 -4 -4 -4 -10z"/>
 <path d="M410 40 c6 -11 13 -20 16 -20 2 0 0 9 -6 20 -6 11 -13 20 -16 20 -2 0 0 -9 6 -20z"/>
 <path d="M460 50 c0 -7 3 -10 7 -7 3 4 3 10 0 14 -4 3 -7 0 -7 -7z"/>
 <path d="M435 40 c3 -5 8 -10 11 -10 3 0 2 5 -1 10 -3 6 -8 10 -11 10 -3 0 -2 -4 1 -10z"/>
 </g>
<g id="layer120" fill="#adacb2" stroke="none">
 <path d="M0 330 l0 -330 85 0 84 0 -13 38 c-7 20 -19 71 -26 112 -7 41 -27 111 -45 155 -42 103 -45 119 -47 248 -1 97 -3 107 -20 107 -17 0 -18 -17 -18 -330z"/>
 <path d="M98 633 c-4 -71 20 -122 54 -115 34 7 58 -16 58 -56 0 -20 4 -43 9 -51 11 -17 2 -51 -14 -51 -8 0 -13 -21 -14 -65 -1 -40 2 -65 8 -65 6 0 11 15 11 33 0 18 7 42 16 53 15 18 15 18 5 -3 -14 -28 -14 -148 -1 -174 13 -23 45 -27 36 -4 -9 26 5 77 20 71 8 -3 15 0 15 7 1 7 5 -6 9 -28 7 -36 5 -43 -20 -70 -25 -26 -27 -32 -15 -48 11 -15 17 -17 35 -7 20 11 21 10 10 -10 -9 -17 -9 -21 0 -15 6 4 20 -1 30 -10 10 -9 24 -14 29 -10 13 8 14 32 2 39 -5 4 -7 -4 -4 -16 4 -20 3 -21 -7 -5 -6 9 -9 43 -8 75 4 51 5 54 12 26 8 -30 10 -31 50 -27 42 5 42 5 54 -36 14 -46 31 -55 24 -13 -2 15 1 51 6 79 l9 52 -31 -5 c-17 -3 -26 -2 -20 3 12 9 14 53 2 53 -4 0 -2 13 3 29 9 26 12 27 34 17 13 -6 21 -15 18 -20 -4 -5 -1 -6 6 -2 6 4 9 11 6 16 -3 4 -1 10 4 12 4 1 11 13 15 25 6 18 -5 31 -63 80 -73 61 -91 88 -21 33 34 -27 41 -29 46 -15 4 10 -1 21 -12 30 -23 17 -94 38 -101 31 -4 -3 -11 1 -17 9 -9 12 -11 9 -12 -18 -1 -49 -11 -67 -36 -67 -18 0 -20 2 -9 9 12 8 9 12 -15 23 -16 7 -35 20 -42 28 -8 8 -11 9 -7 3 4 -8 0 -13 -9 -13 -9 0 -22 13 -31 29 -8 17 -30 44 -47 62 l-33 31 43 -6 c34 -5 41 -4 35 6 -5 7 -19 30 -32 51 -19 31 -28 37 -57 37 -30 0 -34 -3 -36 -27z m209 -210 c-4 -3 -10 -3 -14 0 -3 4 0 7 7 7 7 0 10 -3 7 -7z m140 -30 c-4 -3 -10 -3 -14 0 -3 4 0 7 7 7 7 0 10 -3 7 -7z m38 -13 c3 -5 4 -10 1 -10 -3 0 -8 5 -11 10 -3 6 -4 10 -1 10 3 0 8 -4 11 -10z m-205 -3 c0 -2 -10 -12 -22 -23 l-23 -19 19 23 c18 21 26 27 26 19z m245 -67 c3 -5 4 -10 1 -10 -3 0 -8 5 -11 10 -3 6 -4 10 -1 10 3 0 8 -4 11 -10z m-55 -14 c0 -3 -4 -8 -10 -11 -5 -3 -10 -1 -10 4 0 6 5 11 10 11 6 0 10 -2 10 -4z m-183 -73 c-4 -3 -10 -3 -14 0 -3 4 0 7 7 7 7 0 10 -3 7 -7z m4 -150 c13 -16 12 -17 -3 -4 -17 13 -22 21 -14 21 2 0 10 -8 17 -17z"/>
 <path d="M510 627 c0 -27 8 -41 39 -69 l40 -35 25 26 c20 20 26 38 26 69 l0 42 -65 0 -65 0 0 -33z"/>
 <path d="M512 560 c2 -8 -6 -23 -19 -33 -18 -15 -21 -22 -13 -38 6 -10 17 -19 25 -19 8 0 15 -4 15 -9 0 -5 9 -13 20 -16 11 -3 20 -12 20 -19 0 -7 18 -22 40 -34 26 -13 40 -17 40 -9 0 22 -36 128 -42 125 -4 -2 -17 6 -30 17 -13 12 -32 27 -42 35 -17 13 -19 13 -14 0z m56 -85 c-6 -14 -13 -23 -15 -21 -5 5 15 46 22 46 3 0 -1 -11 -7 -25z"/>
 <path d="M561 244 c0 -11 3 -14 6 -6 3 7 2 16 -1 19 -3 4 -6 -2 -5 -13z"/>
 <path d="M530 180 c0 -18 4 -29 10 -25 6 3 10 15 10 25 0 10 -4 22 -10 25 -6 4 -10 -7 -10 -25z"/>
 <path d="M450 80 c0 -7 3 -10 7 -7 3 4 3 10 0 14 -4 3 -7 0 -7 -7z"/>
 <path d="M410 40 c6 -11 13 -20 16 -20 2 0 0 9 -6 20 -6 11 -13 20 -16 20 -2 0 0 -9 6 -20z"/>
 </g>
<g id="layer121" fill="#afb8c7" stroke="none">
 <path d="M0 330 l0 -330 84 0 84 0 -14 39 c-7 22 -18 69 -24 106 -6 36 -29 114 -52 173 -39 103 -41 112 -42 224 -1 105 -3 118 -18 118 -17 0 -18 -22 -18 -330z"/>
 <path d="M100 612 c0 -56 12 -75 58 -90 38 -13 40 -7 10 26 l-23 25 43 -7 c34 -5 41 -4 35 6 -5 7 -19 30 -32 51 -19 31 -28 37 -57 37 -34 0 -34 0 -34 -48z"/>
 <path d="M510 628 c0 -25 9 -41 41 -70 40 -36 40 -37 25 -67 -25 -47 -20 -68 22 -95 20 -13 39 -22 41 -20 5 5 -30 125 -41 140 -4 6 2 20 17 34 19 18 25 34 25 67 l0 43 -65 0 -65 0 0 -32z"/>
 <path d="M210 461 c0 -18 7 -46 16 -63 9 -16 11 -27 5 -24 -7 5 -11 -4 -12 -21 -1 -17 -3 -21 -6 -10 -10 37 -20 14 -22 -48 -1 -40 2 -65 8 -65 6 0 11 15 11 33 0 18 7 42 16 53 15 18 15 18 5 -3 -14 -28 -14 -148 -1 -174 14 -25 45 -26 35 -2 -4 10 -9 24 -12 31 -3 6 0 12 6 12 6 0 11 7 11 15 0 8 6 15 13 15 8 0 7 4 -3 10 -8 5 -10 10 -5 10 20 0 32 -16 39 -51 5 -30 2 -39 -19 -59 -24 -22 -24 -24 -8 -42 9 -10 22 -17 29 -14 7 3 11 0 9 -7 -3 -7 7 -20 21 -31 21 -14 28 -16 37 -6 9 9 9 11 1 7 -7 -4 -15 0 -18 9 -10 26 -7 122 4 129 6 4 10 -9 10 -32 0 -21 4 -33 8 -28 4 6 16 10 27 10 15 0 19 6 17 25 -3 23 -2 23 17 -7 11 -18 23 -44 27 -58 11 -46 20 -35 30 40 l9 74 -30 -6 c-17 -2 -25 -1 -19 4 12 10 13 53 1 53 -5 0 -7 7 -4 15 4 8 2 17 -3 20 -13 8 -13 25 1 25 5 0 7 -6 3 -12 -5 -8 -1 -8 10 1 14 12 19 12 26 2 11 -19 47 -5 54 22 4 16 -1 28 -22 46 -99 87 -114 101 -107 101 4 0 25 -14 46 -31 33 -26 40 -28 45 -14 4 10 -1 21 -12 30 -25 18 -92 37 -104 30 -6 -3 -10 0 -11 7 -1 7 -6 -7 -13 -32 -9 -34 -17 -46 -34 -48 -15 -2 -22 2 -22 13 0 9 -5 13 -10 10 -6 -4 -8 -11 -4 -16 3 -6 -3 -13 -15 -16 -11 -3 -19 -9 -16 -13 2 -4 -5 -16 -18 -26 -20 -18 -21 -18 -7 0 8 10 15 25 16 33 2 8 10 23 20 34 16 18 16 19 -5 19 -12 0 -33 12 -46 26 l-25 27 0 -32z m237 -68 c-4 -3 -10 -3 -14 0 -3 4 0 7 7 7 7 0 10 -3 7 -7z m38 -13 c3 -5 4 -10 1 -10 -3 0 -8 5 -11 10 -3 6 -4 10 -1 10 3 0 8 -4 11 -10z m43 -85 c-3 -3 -9 2 -12 12 -6 14 -5 15 5 6 7 -7 10 -15 7 -18z"/>
 <path d="M283 403 c4 -3 10 -3 14 0 3 4 0 7 -7 7 -7 0 -10 -3 -7 -7z"/>
 <path d="M561 244 c0 -11 3 -14 6 -6 3 7 2 16 -1 19 -3 4 -6 -2 -5 -13z"/>
 <path d="M530 200 c0 -5 5 -10 11 -10 5 0 7 5 4 10 -3 6 -8 10 -11 10 -2 0 -4 -4 -4 -10z"/>
 </g>
<g id="layer122" fill="#dab0a8" stroke="none">
 <path d="M0 330 l0 -330 84 0 85 0 -14 35 c-8 19 -19 66 -25 105 -5 39 -26 111 -45 160 -47 121 -58 178 -53 277 4 75 3 83 -14 83 -17 0 -18 -17 -18 -330z"/>
 <path d="M100 613 c1 -58 16 -81 61 -89 l34 -7 -25 28 -25 28 43 -7 c34 -5 41 -4 35 6 -5 7 -19 30 -32 51 -19 31 -28 37 -57 37 -34 0 -34 0 -34 -47z"/>
 <path d="M510 628 c0 -25 9 -41 41 -70 40 -36 40 -37 25 -67 -25 -47 -20 -68 22 -95 47 -30 50 -19 19 67 l-24 66 23 22 c18 17 24 33 24 66 l0 43 -65 0 -65 0 0 -32z"/>
 <path d="M210 464 c1 -16 7 -40 15 -54 17 -30 19 -44 5 -35 -6 4 -10 -5 -10 -20 0 -14 -4 -23 -10 -20 -15 9 -24 -43 -12 -68 10 -22 11 -22 11 4 1 14 8 34 17 45 15 18 15 18 5 -3 -14 -28 -14 -148 -1 -174 14 -25 45 -26 35 -2 -4 10 -9 24 -12 31 -3 6 0 12 6 12 6 0 11 7 11 15 0 8 6 15 13 15 8 0 7 4 -3 10 -8 5 -10 10 -5 10 20 0 32 -16 39 -51 5 -30 2 -39 -19 -59 -24 -22 -24 -24 -8 -42 9 -10 23 -16 30 -13 8 2 11 0 8 -5 -4 -6 4 -19 17 -30 30 -25 41 -25 28 -1 -13 25 -13 128 0 136 6 3 10 2 10 -3 0 -5 12 -7 28 -5 28 5 41 -11 74 -92 l12 -30 3 30 c2 17 8 51 12 77 l8 47 -31 -5 c-21 -4 -27 -3 -17 4 10 7 11 14 1 32 -6 12 -9 28 -6 35 3 8 1 17 -4 20 -13 8 -13 25 1 25 5 0 7 -6 3 -12 -5 -8 -1 -8 10 1 14 12 19 12 26 2 11 -19 50 -4 50 19 0 10 -29 48 -64 84 -35 36 -61 66 -59 66 3 0 23 -14 44 -31 33 -26 40 -28 45 -14 4 10 -1 21 -12 30 -25 18 -92 37 -104 30 -6 -3 -10 0 -11 7 -1 7 -6 -7 -13 -32 -9 -34 -17 -46 -34 -48 -15 -2 -22 2 -22 13 0 9 -5 13 -10 10 -6 -4 -8 -11 -4 -16 3 -6 -3 -13 -15 -16 -11 -3 -19 -9 -16 -13 2 -4 -5 -16 -18 -26 -20 -18 -21 -18 -7 0 8 10 15 25 16 33 2 8 10 23 20 34 16 18 16 19 -5 19 -12 0 -33 12 -46 26 l-25 27 0 -29z m237 -71 c-4 -3 -10 -3 -14 0 -3 4 0 7 7 7 7 0 10 -3 7 -7z m38 -13 c3 -5 4 -10 1 -10 -3 0 -8 5 -11 10 -3 6 -4 10 -1 10 3 0 8 -4 11 -10z m43 -85 c-3 -3 -9 2 -12 12 -6 14 -5 15 5 6 7 -7 10 -15 7 -18z"/>
 <path d="M283 403 c4 -3 10 -3 14 0 3 4 0 7 -7 7 -7 0 -10 -3 -7 -7z"/>
 <path d="M380 120 c0 -7 3 -10 7 -7 3 4 3 10 0 14 -4 3 -7 0 -7 -7z"/>
 </g>
<g id="layer123" fill="#d0b4af" stroke="none">
 <path d="M0 330 l0 -330 84 0 85 0 -14 35 c-8 19 -19 66 -25 105 -5 39 -26 111 -45 160 -47 121 -58 178 -53 277 4 75 3 83 -14 83 -17 0 -18 -17 -18 -330z"/>
 <path d="M100 613 c1 -58 16 -81 61 -89 l34 -7 -25 28 -25 28 44 -7 c43 -7 44 -6 29 11 -9 10 -23 33 -32 51 -14 27 -22 32 -51 32 l-35 0 0 -47z m80 -9 c0 -8 -4 -12 -10 -9 -5 3 -10 10 -10 16 0 5 5 9 10 9 6 0 10 -7 10 -16z"/>
 <path d="M510 628 c0 -25 9 -41 41 -70 40 -36 40 -37 25 -67 -25 -47 -20 -68 22 -95 47 -30 50 -19 19 67 l-24 66 23 22 c18 17 24 33 24 66 l0 43 -65 0 -65 0 0 -32z"/>
 <path d="M210 464 c1 -16 7 -40 15 -54 17 -30 19 -44 5 -35 -6 4 -10 -5 -10 -20 0 -14 -4 -23 -10 -20 -15 9 -24 -43 -12 -68 10 -22 11 -22 11 4 1 14 8 34 17 45 15 18 15 18 5 -3 -14 -28 -14 -148 -1 -174 14 -25 45 -26 35 -2 -4 10 -9 24 -12 31 -3 6 0 12 6 12 6 0 11 7 11 15 0 8 6 15 13 15 8 0 7 4 -3 10 -8 5 -10 10 -5 10 20 0 32 -16 39 -51 5 -29 2 -40 -18 -62 -23 -25 -23 -26 -6 -42 10 -9 23 -14 29 -10 7 3 8 0 5 -9 -3 -9 -1 -16 5 -16 19 0 33 42 27 80 -4 28 -2 39 9 44 8 3 15 2 15 -3 0 -4 13 -6 28 -3 22 3 30 -1 40 -22 6 -14 15 -26 19 -26 5 0 9 -12 10 -26 0 -14 6 -31 12 -37 9 -9 11 -1 7 31 -3 23 -2 42 2 42 4 0 7 11 7 24 0 21 -4 24 -26 19 -18 -3 -28 0 -32 11 -5 11 -1 16 14 16 16 0 19 4 14 18 -5 9 -9 27 -10 39 -1 13 -5 26 -8 30 -10 10 -8 23 4 23 5 0 7 -6 3 -12 -5 -8 -1 -8 10 1 14 12 19 12 26 2 11 -19 50 -4 50 19 0 10 -29 48 -64 84 -35 36 -61 66 -59 66 3 0 23 -14 44 -31 33 -26 40 -28 45 -14 4 10 -1 21 -12 30 -24 17 -92 37 -103 30 -5 -3 -12 1 -14 7 -4 10 -6 10 -6 -1 -1 -13 59 -75 95 -98 12 -8 2 -7 -25 2 -24 8 -63 15 -87 15 -33 0 -44 4 -44 16 0 8 -5 12 -10 9 -6 -4 -8 -11 -4 -16 3 -6 -3 -13 -15 -16 -11 -3 -19 -9 -16 -13 2 -4 -5 -16 -18 -26 -20 -18 -21 -18 -7 0 8 10 15 25 16 33 2 8 10 23 20 34 16 18 16 19 -5 19 -12 0 -33 12 -46 26 l-25 27 0 -29z m318 -169 c-3 -3 -9 2 -12 12 -6 14 -5 15 5 6 7 -7 10 -15 7 -18z m-151 -92 c-4 -3 -7 0 -7 7 0 7 3 10 7 7 3 -4 3 -10 0 -14z m-60 -100 c-4 -3 -7 0 -7 7 0 7 3 10 7 7 3 -4 3 -10 0 -14z"/>
 <path d="M283 403 c4 -3 10 -3 14 0 3 4 0 7 -7 7 -7 0 -10 -3 -7 -7z"/>
 <path d="M380 120 c0 -7 3 -10 7 -7 3 4 3 10 0 14 -4 3 -7 0 -7 -7z"/>
 <path d="M347 43 c-4 -6 0 -16 8 -23 21 -17 28 -8 11 15 -8 11 -15 14 -19 8z"/>
 </g>
<g id="layer124" fill="#bec1c9" stroke="none">
 <path d="M0 330 l0 -330 84 0 85 0 -14 35 c-8 19 -19 66 -25 105 -5 39 -26 111 -45 160 -47 121 -58 178 -53 277 4 75 3 83 -14 83 -17 0 -18 -17 -18 -330z"/>
 <path d="M100 613 c1 -58 16 -81 61 -89 l34 -6 -30 27 -30 28 46 -5 46 -5 -31 48 c-26 41 -36 48 -63 48 -33 1 -33 1 -33 -46z m80 -9 c0 -8 -4 -12 -10 -9 -5 3 -10 10 -10 16 0 5 5 9 10 9 6 0 10 -7 10 -16z"/>
 <path d="M520 621 c0 -33 6 -43 36 -66 l35 -27 25 23 c18 17 24 33 24 66 l0 43 -60 0 -60 0 0 -39z"/>
 <path d="M577 491 c-26 -45 -22 -68 21 -95 20 -13 39 -22 41 -20 3 3 -37 144 -42 144 -2 0 -10 -13 -20 -29z"/>
 <path d="M210 464 c1 -16 7 -40 15 -54 17 -30 19 -44 5 -35 -6 4 -10 -5 -10 -21 0 -26 0 -27 20 -9 11 10 20 24 20 30 0 7 9 24 21 39 l20 26 -21 0 c-11 0 -32 12 -45 26 l-25 27 0 -29z"/>
 <path d="M385 460 c3 -5 8 -10 11 -10 3 0 2 5 -1 10 -3 6 -8 10 -11 10 -3 0 -2 -4 1 -10z"/>
 <path d="M435 464 c6 -5 24 -22 41 -37 26 -23 32 -26 37 -13 4 10 -2 21 -16 30 -26 16 -77 32 -62 20z"/>
 <path d="M420 430 c6 -11 22 -25 34 -30 27 -10 60 -53 70 -90 4 -14 -5 -4 -19 21 -30 53 -67 69 -153 69 -45 0 -53 -4 -82 -36 -17 -20 -36 -47 -41 -61 -12 -33 -12 -140 1 -164 13 -23 45 -27 36 -4 -3 8 -9 22 -12 30 -3 8 -1 15 5 15 6 0 11 7 11 15 0 8 6 15 13 15 8 0 7 4 -3 10 -13 8 -13 10 2 10 23 0 28 -10 33 -76 2 -32 1 -53 -3 -47 -5 8 -12 8 -24 -1 -17 -12 -17 -14 1 -31 12 -10 25 -14 33 -9 7 4 10 3 5 -1 -8 -10 31 -55 47 -55 6 0 5 4 -3 9 -20 13 -26 103 -11 156 16 58 30 67 25 17 -3 -36 -2 -39 21 -34 13 2 24 10 24 18 0 7 11 16 25 20 20 5 23 9 15 25 -6 10 -8 30 -6 43 4 20 1 24 -12 19 -15 -6 -15 -5 -3 10 17 21 25 21 45 1 19 -18 56 -10 56 13 0 22 -77 111 -112 129 -29 15 -29 15 -18 -6z"/>
 <path d="M310 420 c0 -7 3 -10 7 -7 3 4 3 10 0 14 -4 3 -7 0 -7 -7z"/>
 <path d="M195 317 c-4 -14 -3 -36 1 -49 7 -21 8 -19 16 16 10 45 -7 76 -17 33z"/>
 <path d="M468 163 c-25 -4 -26 -6 -16 -29 6 -13 15 -24 20 -24 5 0 7 -3 5 -7 -2 -5 2 -21 9 -38 l14 -30 -5 38 c-2 20 0 51 5 67 5 17 6 29 2 29 -4 -1 -19 -4 -34 -6z"/>
 <path d="M380 120 c0 -7 3 -10 7 -7 3 4 3 10 0 14 -4 3 -7 0 -7 -7z"/>
 </g>
<g id="layer125" fill="#d6c4bd" stroke="none">
 <path d="M0 330 l0 -330 81 0 c74 0 80 2 73 18 -4 9 -13 51 -21 92 -7 41 -25 109 -39 150 -54 155 -65 210 -62 308 3 82 1 92 -14 92 -17 0 -18 -22 -18 -330z"/>
 <path d="M100 616 c0 -52 22 -82 65 -92 l30 -6 -30 27 -30 28 46 -5 46 -5 -31 48 c-26 41 -36 48 -63 48 -32 1 -33 0 -33 -43z m80 -12 c0 -8 -4 -12 -10 -9 -5 3 -10 10 -10 16 0 5 5 9 10 9 6 0 10 -7 10 -16z"/>
 <path d="M520 621 c0 -33 6 -43 36 -66 l35 -27 25 23 c18 17 24 33 24 66 l0 43 -60 0 -60 0 0 -39z"/>
 <path d="M575 481 c-10 -22 -15 -46 -12 -54 6 -16 77 -60 77 -48 0 12 -40 141 -44 141 -2 0 -11 -18 -21 -39z"/>
 <path d="M210 474 c1 -11 7 -36 15 -58 9 -27 11 -46 4 -64 -8 -22 -8 -23 6 -12 8 7 12 17 8 23 -3 6 -1 7 5 3 7 -4 12 -1 12 7 0 8 9 26 21 41 l20 26 -25 0 c-15 0 -33 10 -45 26 -18 23 -21 24 -21 8z"/>
 <path d="M385 460 c3 -5 8 -10 11 -10 3 0 2 5 -1 10 -3 6 -8 10 -11 10 -3 0 -2 -4 1 -10z"/>
 <path d="M435 464 c6 -5 24 -22 41 -37 26 -23 32 -26 37 -13 4 10 -2 21 -16 30 -26 16 -77 32 -62 20z"/>
 <path d="M420 430 c6 -11 22 -25 34 -30 26 -10 66 -56 66 -76 0 -8 4 -14 10 -14 28 0 -47 103 -92 126 -29 15 -29 15 -18 -6z"/>
 <path d="M310 420 c0 -7 3 -10 7 -7 3 4 3 10 0 14 -4 3 -7 0 -7 -7z"/>
 <path d="M270 364 c-41 -48 -50 -73 -50 -148 0 -50 4 -67 20 -81 25 -23 36 -14 20 15 -9 18 -9 24 0 30 7 4 9 13 6 19 -4 6 -2 11 4 11 6 0 8 5 5 10 -3 6 1 10 9 10 21 0 26 -11 31 -76 2 -32 1 -53 -3 -47 -5 8 -12 8 -24 -1 -17 -12 -17 -14 1 -31 11 -9 25 -14 32 -9 7 4 10 3 6 -3 -4 -6 5 -21 19 -34 l25 -24 -10 28 c-14 37 -14 105 0 148 15 44 30 61 27 29 -3 -26 12 -30 65 -15 21 6 25 10 17 21 -6 7 -9 26 -7 43 4 24 2 29 -11 24 -16 -5 -16 -5 -1 12 14 14 21 15 39 5 32 -17 35 -6 10 38 -25 45 -66 62 -148 62 -45 0 -53 -4 -82 -36z"/>
 <path d="M468 163 c-25 -4 -26 -6 -16 -29 6 -13 15 -24 20 -24 5 0 7 -3 5 -7 -2 -5 2 -21 9 -38 l14 -30 -5 38 c-2 20 0 51 5 67 5 17 6 29 2 29 -4 -1 -19 -4 -34 -6z"/>
 </g>
<g id="layer126" fill="#edc8bc" stroke="none">
 <path d="M0 330 l0 -330 81 0 c74 0 80 2 73 18 -4 9 -13 51 -21 92 -7 41 -25 109 -39 150 -54 155 -65 210 -62 308 3 82 1 92 -14 92 -17 0 -18 -23 -18 -330z"/>
 <path d="M105 649 c-10 -15 4 -96 18 -107 7 -6 26 -14 42 -18 l30 -7 -30 26 -30 26 43 1 43 0 -31 45 c-31 45 -69 60 -85 34z m75 -45 c0 -8 -4 -12 -10 -9 -5 3 -10 10 -10 16 0 5 5 9 10 9 6 0 10 -7 10 -16z"/>
 <path d="M521 623 c0 -30 7 -44 34 -66 l34 -28 26 25 c18 19 25 36 25 66 l0 40 -60 0 -60 0 1 -37z"/>
 <path d="M575 481 c-10 -22 -15 -46 -12 -54 6 -16 77 -60 77 -48 0 12 -40 141 -44 141 -2 0 -11 -18 -21 -39z"/>
 <path d="M211 475 c0 -11 6 -37 14 -59 9 -26 11 -46 4 -63 -6 -16 -5 -22 1 -18 6 3 10 13 10 21 0 8 5 12 10 9 6 -3 10 0 10 8 0 8 9 26 21 41 l20 26 -30 0 c-23 0 -34 7 -45 28 -13 22 -15 24 -15 7z"/>
 <path d="M472 434 c20 -20 31 -25 38 -18 13 13 -3 28 -40 39 l-25 7 27 -28z"/>
 <path d="M420 426 c0 -2 7 -9 15 -16 13 -11 14 -10 9 4 -5 14 -24 23 -24 12z"/>
 <path d="M471 405 c0 -5 13 -26 29 -45 17 -19 30 -30 30 -25 0 6 -14 26 -30 45 -16 19 -29 31 -29 25z"/>
 <path d="M267 360 c-30 -36 -35 -49 -40 -113 -5 -73 5 -116 31 -125 9 -3 10 3 2 24 -8 19 -8 29 0 34 6 4 8 14 4 23 -7 19 22 35 37 20 5 -5 11 -36 14 -69 3 -33 1 -53 -3 -46 -7 10 -11 10 -22 -3 -10 -12 -10 -18 0 -30 7 -9 19 -14 27 -11 8 3 12 2 9 -3 -3 -4 2 -15 12 -24 16 -15 17 -11 17 66 0 58 5 91 17 112 l17 30 1 -34 c0 -33 1 -33 19 -17 11 10 20 13 22 7 2 -6 14 -8 27 -5 17 5 20 10 12 20 -6 7 -9 26 -7 43 4 24 2 29 -11 24 -16 -5 -16 -4 -1 11 12 13 21 15 42 7 32 -13 33 -6 7 37 -25 41 -73 62 -144 62 -51 0 -56 -2 -89 -40z"/>
 <path d="M472 163 c-18 -4 -22 -9 -16 -26 4 -12 11 -25 16 -28 5 -3 9 -9 9 -13 -3 -23 0 -30 8 -17 5 8 7 19 5 26 -3 6 0 24 5 38 6 15 7 26 3 26 -4 -1 -17 -4 -30 -6z"/>
 </g>
<g id="layer127" fill="#dad4cf" stroke="none">
 <path d="M0 330 l0 -330 81 0 c74 0 80 2 73 18 -4 9 -13 51 -21 92 -7 41 -25 109 -39 150 -54 155 -65 210 -62 308 3 82 1 92 -14 92 -17 0 -18 -23 -18 -330z"/>
 <path d="M552 635 c-17 -37 -15 -51 13 -80 l24 -27 26 26 c18 19 25 36 25 66 0 40 0 40 -38 40 -32 0 -41 -5 -50 -25z"/>
 <path d="M104 603 c7 -54 19 -69 61 -79 l30 -7 -29 24 c-29 23 -29 24 -8 29 22 5 22 6 -10 43 -18 20 -37 37 -42 37 -5 0 -6 -21 -2 -47z"/>
 <path d="M520 610 c0 -7 3 -10 7 -7 3 4 3 10 0 14 -4 3 -7 0 -7 -7z"/>
 <path d="M205 580 c3 -5 8 -10 11 -10 3 0 2 5 -1 10 -3 6 -8 10 -11 10 -3 0 -2 -4 1 -10z"/>
 <path d="M575 481 c-10 -22 -15 -46 -12 -54 6 -16 77 -60 77 -48 0 12 -40 141 -44 141 -2 0 -11 -18 -21 -39z"/>
 <path d="M211 475 c0 -11 6 -37 14 -59 9 -26 11 -46 4 -63 -6 -16 -5 -22 1 -18 6 3 10 13 10 21 0 8 5 12 10 9 6 -3 10 0 10 8 0 8 9 26 21 41 l20 26 -30 0 c-23 0 -34 7 -45 28 -13 22 -15 24 -15 7z"/>
 <path d="M462 444 c10 -10 20 -15 24 -12 3 4 -5 12 -18 18 -22 12 -22 12 -6 -6z"/>
 <path d="M471 405 c0 -5 13 -26 29 -45 17 -19 30 -30 30 -25 0 6 -14 26 -30 45 -16 19 -29 31 -29 25z"/>
 <path d="M267 358 c-30 -37 -35 -52 -40 -114 -6 -71 5 -113 31 -122 9 -3 10 3 2 24 -7 17 -7 30 -1 33 5 4 9 15 8 26 -1 14 4 20 17 20 25 0 52 -96 35 -127 -9 -16 -8 -19 2 -13 8 6 10 4 5 -4 -5 -7 -15 -10 -23 -7 -8 3 -11 2 -8 -3 3 -6 14 -9 25 -8 15 1 20 9 20 32 0 43 27 130 45 145 12 10 13 6 8 -27 -6 -34 -5 -37 10 -25 11 9 14 25 11 50 l-4 37 13 -40 c10 -33 16 -39 35 -37 18 3 21 6 12 17 -6 8 -9 27 -7 44 4 24 2 29 -11 24 -15 -5 -15 -4 0 12 14 16 21 17 43 7 14 -6 25 -8 25 -3 0 5 -3 11 -7 13 -5 2 -15 17 -23 33 -19 36 -63 54 -137 54 -49 1 -53 -1 -86 -41z"/>
 <path d="M458 138 c5 -20 22 -35 22 -19 0 5 2 16 5 23 4 9 -2 14 -13 14 -13 0 -18 -6 -14 -18z"/>
 </g>
<g id="layer128" fill="#f4dacf" stroke="none">
 <path d="M30 650 c0 -7 3 -10 7 -7 3 4 3 10 0 14 -4 3 -7 0 -7 -7z"/>
 <path d="M552 635 c-17 -36 -15 -43 12 -76 l24 -28 26 24 c20 18 26 34 26 65 0 40 0 40 -38 40 -32 0 -41 -5 -50 -25z"/>
 <path d="M106 641 c-10 -16 3 -88 17 -99 7 -5 23 -12 36 -15 l23 -6 -22 24 -22 23 21 4 c20 3 20 5 -12 42 -23 26 -37 35 -41 27z"/>
 <path d="M21 614 c0 -11 3 -14 6 -6 3 7 2 16 -1 19 -3 4 -6 -2 -5 -13z"/>
 <path d="M520 610 c0 -7 3 -10 7 -7 3 4 3 10 0 14 -4 3 -7 0 -7 -7z"/>
 <path d="M21 574 c0 -11 3 -14 6 -6 3 7 2 16 -1 19 -3 4 -6 -2 -5 -13z"/>
 <path d="M205 580 c3 -5 8 -10 11 -10 3 0 2 5 -1 10 -3 6 -8 10 -11 10 -3 0 -2 -4 1 -10z"/>
 <path d="M22 500 c0 -14 2 -19 5 -12 2 6 2 18 0 25 -3 6 -5 1 -5 -13z"/>
 <path d="M590 510 c0 -7 3 -10 7 -7 3 4 3 10 0 14 -4 3 -7 0 -7 -7z"/>
 <path d="M216 465 c8 -37 14 -45 14 -19 0 10 -5 26 -10 34 -8 11 -9 7 -4 -15z"/>
 <path d="M600 480 c0 -7 3 -10 7 -7 3 4 3 10 0 14 -4 3 -7 0 -7 -7z"/>
 <path d="M462 444 c10 -10 20 -15 24 -12 3 4 -5 12 -18 18 -22 12 -22 12 -6 -6z"/>
 <path d="M610 450 c0 -7 3 -10 7 -7 3 4 3 10 0 14 -4 3 -7 0 -7 -7z"/>
 <path d="M30 434 c0 -9 -8 -22 -17 -29 -14 -11 -15 -19 -8 -51 9 -33 14 -39 37 -39 l27 -1 -19 31 c-15 24 -17 34 -8 43 8 8 8 12 1 12 -6 0 -8 11 -5 25 2 14 2 25 -2 25 -3 0 -6 -7 -6 -16z"/>
 <path d="M266 413 c-6 -14 -5 -15 5 -6 7 7 10 15 7 18 -3 3 -9 -2 -12 -12z"/>
 <path d="M620 415 c0 -11 -5 -12 -26 -5 -16 7 -23 7 -19 0 3 -6 11 -10 17 -10 6 0 20 -8 31 -17 14 -13 18 -14 11 -3 -4 8 -7 23 -6 33 2 9 1 17 -2 17 -3 0 -6 -7 -6 -15z"/>
 <path d="M250 375 c8 -20 6 -32 -5 -48 -21 -30 -21 -180 0 -197 9 -7 18 -10 22 -6 3 3 2 6 -3 6 -5 0 -10 14 -11 30 -1 17 1 28 6 26 4 -3 6 5 4 18 -6 30 14 43 34 23 22 -21 32 -96 20 -143 -3 -14 0 -21 9 -21 9 0 14 11 14 32 0 44 27 130 46 146 13 11 14 9 9 -14 -6 -21 -4 -26 7 -22 9 4 13 17 11 38 -2 29 -1 28 10 -8 9 -30 17 -40 29 -37 14 3 15 8 8 27 -6 16 -6 27 2 31 7 5 6 11 -6 19 -14 11 -14 14 -2 25 8 6 24 9 35 5 19 -6 20 -4 10 25 -16 44 -49 61 -124 68 -59 4 -68 2 -90 -18 -20 -19 -25 -20 -25 -7 0 9 -4 19 -10 22 -7 4 -7 -3 0 -20z"/>
 <path d="M231 354 c0 -11 3 -14 6 -6 3 7 2 16 -1 19 -3 4 -6 -2 -5 -13z"/>
 <path d="M29 287 c-16 -12 -15 -37 2 -37 6 0 7 5 3 12 -4 6 -3 8 4 5 5 -4 8 -16 5 -27 -3 -11 0 -20 6 -20 6 0 11 -9 11 -20 0 -23 4 -24 31 -10 24 13 25 30 2 30 -13 0 -14 3 -6 11 14 14 5 42 -9 33 -6 -4 -8 2 -3 15 5 16 2 21 -12 21 -10 0 -25 -6 -34 -13z"/>
 <path d="M94 182 c-6 -4 -11 -24 -11 -44 -1 -34 2 -38 24 -38 23 0 25 3 19 31 -3 17 -6 38 -6 45 0 15 -9 18 -26 6z"/>
 <path d="M458 138 c5 -20 22 -35 22 -19 0 5 2 16 5 23 4 9 -2 14 -13 14 -13 0 -18 -6 -14 -18z"/>
 <path d="M87 84 c-17 -18 -6 -33 23 -31 16 1 30 8 30 15 0 6 -4 12 -9 12 -5 0 -16 2 -23 5 -8 3 -17 2 -21 -1z"/>
 <path d="M102 29 c-32 -12 -18 -30 22 -27 27 1 32 6 28 20 -5 20 -15 21 -50 7z"/>
 </g>
<g id="layer129" fill="#dddfe2" stroke="none">
 <path d="M30 650 c0 -7 3 -10 7 -7 3 4 3 10 0 14 -4 3 -7 0 -7 -7z"/>
 <path d="M576 634 c3 -12 0 -25 -6 -29 -9 -5 -10 -1 -5 15 5 15 4 20 -4 16 -17 -11 -9 -66 12 -81 23 -16 44 -10 58 18 10 17 9 19 -7 13 -18 -6 -18 -5 -1 8 9 7 17 25 17 39 0 24 -4 26 -35 25 -31 -1 -34 -4 -29 -24z m16 -46 c-7 -7 -12 -8 -12 -2 0 6 3 14 7 17 3 4 9 5 12 2 2 -3 -1 -11 -7 -17z m5 -35 c-4 -3 -7 0 -7 7 0 7 3 10 7 7 3 -4 3 -10 0 -14z"/>
 <path d="M106 642 c-9 -15 4 -90 18 -100 6 -5 21 -12 33 -15 l23 -5 -23 28 c-12 15 -26 25 -32 22 -5 -3 -7 -2 -3 3 4 4 3 14 -3 22 -7 8 -8 13 -1 13 5 0 12 -7 16 -15 3 -8 13 -15 22 -15 16 0 16 1 0 18 -9 9 -23 26 -30 36 -8 12 -15 15 -20 8z"/>
 <path d="M21 614 c0 -11 3 -14 6 -6 3 7 2 16 -1 19 -3 4 -6 -2 -5 -13z"/>
 <path d="M21 574 c0 -11 3 -14 6 -6 3 7 2 16 -1 19 -3 4 -6 -2 -5 -13z"/>
 <path d="M22 500 c0 -14 2 -19 5 -12 2 6 2 18 0 25 -3 6 -5 1 -5 -13z"/>
 <path d="M590 510 c0 -7 3 -10 7 -7 3 4 3 10 0 14 -4 3 -7 0 -7 -7z"/>
 <path d="M216 465 c8 -37 14 -45 14 -19 0 10 -5 26 -10 34 -8 11 -9 7 -4 -15z"/>
 <path d="M600 480 c0 -7 3 -10 7 -7 3 4 3 10 0 14 -4 3 -7 0 -7 -7z"/>
 <path d="M610 450 c0 -7 3 -10 7 -7 3 4 3 10 0 14 -4 3 -7 0 -7 -7z"/>
 <path d="M30 434 c0 -9 -8 -22 -17 -29 -14 -11 -15 -19 -8 -51 9 -33 14 -39 37 -39 l27 -1 -19 31 c-15 24 -17 34 -8 43 8 8 8 12 1 12 -6 0 -8 11 -5 25 2 14 2 25 -2 25 -3 0 -6 -7 -6 -16z"/>
 <path d="M266 413 c-6 -14 -5 -15 5 -6 7 7 10 15 7 18 -3 3 -9 -2 -12 -12z"/>
 <path d="M620 415 c0 -11 -5 -12 -26 -5 -16 7 -23 7 -19 0 3 -6 11 -10 17 -10 6 0 20 -8 31 -17 14 -13 18 -14 11 -3 -4 8 -7 23 -6 33 2 9 1 17 -2 17 -3 0 -6 -7 -6 -15z"/>
 <path d="M247 379 c4 -13 8 -18 11 -10 2 7 -1 18 -6 23 -8 8 -9 4 -5 -13z"/>
 <path d="M279 368 c-19 -26 -20 -31 -5 -25 11 4 15 3 11 -4 -4 -6 -13 -8 -21 -5 -22 8 -34 -35 -34 -118 0 -57 3 -73 15 -73 11 0 13 7 8 25 -4 16 -2 23 4 19 6 -4 8 3 5 18 -3 17 1 27 13 31 21 8 35 -6 39 -40 1 -14 6 -29 10 -34 11 -10 4 50 -7 66 -7 8 -4 12 9 14 11 0 24 2 31 2 24 2 25 16 2 16 -14 0 -31 6 -38 13 -10 10 -15 9 -25 -5 -7 -10 -23 -18 -35 -18 -21 0 -22 1 -4 24 10 13 21 22 24 20 6 -3 21 36 23 61 2 17 36 22 36 5 0 -5 -7 -7 -15 -4 -11 4 -13 2 -9 -9 3 -8 1 -18 -5 -22 -6 -3 -11 -10 -11 -16 0 -13 37 -11 45 2 4 6 24 9 46 6 21 -2 39 0 39 4 0 5 -5 9 -12 9 -6 0 -8 3 -5 6 8 8 38 -16 33 -25 -3 -4 10 -7 29 -7 33 0 33 0 21 31 -17 41 -55 60 -73 37 -11 -15 -12 -15 -7 -1 6 19 -20 29 -78 29 -30 0 -41 -6 -59 -32z m186 -21 c-11 -6 -21 -5 -28 3 -9 8 -7 9 7 4 13 -5 17 -4 12 4 -5 8 -2 10 10 5 15 -6 15 -7 -1 -16z m15 -11 c0 -3 -5 -8 -12 -12 -7 -4 -8 -3 -4 4 7 12 16 16 16 8z m-223 -53 c-4 -3 -7 0 -7 7 0 7 3 10 7 7 3 -4 3 -10 0 -14z"/>
 <path d="M231 354 c0 -11 3 -14 6 -6 3 7 2 16 -1 19 -3 4 -6 -2 -5 -13z"/>
 <path d="M387 299 c6 -6 9 -19 7 -28 -3 -9 1 -5 9 8 9 15 17 20 21 12 4 -6 2 -11 -4 -11 -6 0 -8 -5 -4 -11 4 -8 9 -7 15 2 7 11 9 10 9 -3 0 -9 -4 -19 -9 -22 -10 -7 -3 -46 9 -46 11 0 21 30 15 40 -3 5 -1 12 5 15 13 8 -36 48 -64 52 -16 3 -18 1 -9 -8z"/>
 <path d="M29 287 c-16 -12 -15 -37 2 -37 6 0 7 5 3 12 -4 6 -3 8 4 5 5 -4 8 -16 5 -27 -3 -11 0 -20 6 -20 6 0 11 -9 11 -20 0 -23 4 -24 31 -10 23 13 25 30 4 30 -8 0 -15 5 -15 10 0 6 4 10 10 10 5 0 7 7 4 15 -4 8 -11 12 -16 9 -6 -4 -8 2 -3 15 5 16 2 21 -12 21 -10 0 -25 -6 -34 -13z"/>
 <path d="M355 280 c3 -5 10 -10 16 -10 5 0 9 5 9 10 0 6 -7 10 -16 10 -8 0 -12 -4 -9 -10z"/>
 <path d="M347 233 c-5 -9 -6 -63 -2 -63 9 0 22 60 15 65 -5 3 -11 2 -13 -2z"/>
 <path d="M390 210 c0 -7 3 -10 7 -7 3 4 3 10 0 14 -4 3 -7 0 -7 -7z"/>
 <path d="M94 182 c-6 -4 -11 -24 -11 -44 -1 -34 2 -38 24 -38 23 0 25 3 19 31 -3 17 -6 38 -6 45 0 15 -9 18 -26 6z"/>
 <path d="M87 84 c-17 -18 -6 -33 23 -31 16 1 30 8 30 15 0 6 -4 12 -9 12 -5 0 -16 2 -23 5 -8 3 -17 2 -21 -1z"/>
 <path d="M102 29 c-32 -12 -18 -30 22 -27 27 1 32 6 28 20 -5 20 -15 21 -50 7z"/>
 </g>
<g id="layer130" fill="#fae3d7" stroke="none">
 <path d="M576 634 c3 -12 0 -25 -6 -29 -9 -5 -10 -1 -5 15 5 15 4 20 -4 16 -17 -11 -9 -66 12 -81 23 -16 38 -12 56 17 12 19 11 20 -6 14 -17 -6 -17 -5 0 8 9 7 17 25 17 39 0 24 -4 26 -35 25 -31 -1 -34 -4 -29 -24z m16 -46 c-7 -7 -12 -8 -12 -2 0 6 3 14 7 17 3 4 9 5 12 2 2 -3 -1 -11 -7 -17z m5 -35 c-4 -3 -7 0 -7 7 0 7 3 10 7 7 3 -4 3 -10 0 -14z"/>
 <path d="M109 635 c-4 -44 3 -71 23 -87 29 -26 42 -22 21 6 -10 13 -22 21 -28 18 -5 -3 -7 -2 -3 3 4 4 3 14 -3 22 -7 8 -8 13 -1 13 5 0 12 -7 16 -15 3 -8 13 -15 22 -15 16 0 16 1 0 18 -9 9 -23 26 -31 37 l-14 20 -2 -20z"/>
 <path d="M20 401 c0 -7 -4 -9 -10 -6 -5 3 -10 -1 -10 -9 0 -9 3 -15 7 -15 19 3 27 -2 14 -10 -21 -14 -5 -50 20 -44 11 3 17 9 12 12 -8 6 -11 14 -19 55 -4 22 -14 34 -14 17z"/>
 <path d="M269 358 c-32 -40 -34 -48 -37 -129 -3 -69 -1 -86 10 -86 10 0 13 8 10 25 -3 14 -1 22 4 19 5 -3 10 7 9 21 0 20 5 27 20 27 14 0 23 -11 32 -40 11 -35 12 -36 11 -10 -1 17 -6 36 -11 43 -7 8 -4 12 9 14 11 0 24 2 31 2 24 2 25 16 2 16 -14 0 -31 6 -38 13 -10 10 -15 9 -25 -5 -7 -10 -23 -18 -35 -18 -21 0 -22 1 -4 24 10 13 21 22 24 20 6 -3 21 36 23 61 2 17 36 22 36 5 0 -5 -7 -7 -15 -4 -11 4 -13 2 -9 -9 3 -8 1 -18 -5 -22 -6 -3 -11 -10 -11 -16 0 -13 37 -11 45 2 4 6 24 9 46 6 21 -2 39 0 39 4 0 5 -5 9 -12 9 -6 0 -8 3 -5 6 8 8 38 -16 33 -25 -3 -4 10 -7 29 -7 33 0 33 0 21 31 -17 41 -55 60 -73 37 -11 -15 -12 -15 -7 -1 6 19 -20 29 -77 29 -30 0 -41 -7 -70 -42z m196 -11 c-11 -6 -21 -5 -28 3 -9 8 -7 9 7 4 13 -5 17 -4 12 4 -5 8 -2 10 10 5 15 -6 15 -7 -1 -16z m-180 -7 c-3 -5 -12 -10 -18 -10 -7 0 -6 4 3 10 19 12 23 12 15 0z m195 -4 c0 -3 -5 -8 -12 -12 -7 -4 -8 -3 -4 4 7 12 16 16 16 8z m-223 -53 c-4 -3 -7 0 -7 7 0 7 3 10 7 7 3 -4 3 -10 0 -14z"/>
 <path d="M610 396 c0 -2 8 -10 18 -17 15 -13 16 -12 3 4 -13 16 -21 21 -21 13z"/>
 <path d="M387 299 c6 -6 9 -19 7 -28 -3 -9 1 -5 9 8 9 15 17 20 21 12 4 -6 2 -11 -4 -11 -6 0 -8 -5 -4 -11 4 -8 9 -7 15 2 7 11 9 10 9 -3 0 -9 -4 -19 -9 -22 -10 -7 -3 -46 9 -46 11 0 21 30 15 40 -3 5 -1 12 5 15 13 8 -36 48 -64 52 -16 3 -18 1 -9 -8z"/>
 <path d="M60 290 c0 -6 -4 -9 -9 -6 -15 10 -40 -5 -34 -20 3 -8 9 -14 15 -14 5 0 6 5 3 10 -3 6 -1 10 5 10 7 0 9 -8 5 -20 -4 -13 -1 -22 8 -26 9 -3 13 -13 10 -25 -3 -10 0 -19 6 -19 6 0 11 -7 11 -15 0 -9 9 -15 21 -15 14 0 19 5 17 18 -2 9 -11 16 -20 14 -9 -1 -19 2 -23 8 -4 6 -3 10 2 9 4 -1 15 -1 23 0 12 1 12 4 -3 12 -12 7 -15 17 -11 35 5 21 3 23 -12 17 -16 -6 -17 -5 -6 9 9 11 10 18 2 23 -5 3 -10 1 -10 -5z m20 -44 c0 -3 -4 -8 -10 -11 -5 -3 -10 -1 -10 4 0 6 5 11 10 11 6 0 10 -2 10 -4z"/>
 <path d="M355 280 c3 -5 10 -10 16 -10 5 0 9 5 9 10 0 6 -7 10 -16 10 -8 0 -12 -4 -9 -10z"/>
 <path d="M347 233 c-5 -9 -6 -63 -2 -63 9 0 22 60 15 65 -5 3 -11 2 -13 -2z"/>
 <path d="M390 210 c0 -7 3 -10 7 -7 3 4 3 10 0 14 -4 3 -7 0 -7 -7z"/>
 <path d="M90 130 c-11 -7 -12 -12 -3 -21 14 -14 46 -4 41 13 -6 16 -20 19 -38 8z m17 -17 c-4 -3 -7 0 -7 7 0 7 3 10 7 7 3 -4 3 -10 0 -14z"/>
 <path d="M85 71 c-3 -5 -1 -12 4 -15 12 -8 41 3 41 15 0 12 -37 12 -45 0z"/>
 <path d="M101 29 c-17 -7 -21 -13 -14 -20 15 -15 58 -7 58 10 0 19 -14 22 -44 10z"/>
 </g>
<g id="layer131" fill="#f6eeeb" stroke="none">
 <path d="M153 533 c4 -3 10 -3 14 0 3 4 0 7 -7 7 -7 0 -10 -3 -7 -7z"/>
 <path d="M20 401 c0 -7 -4 -9 -10 -6 -5 3 -10 -1 -10 -9 0 -9 3 -15 7 -15 19 3 27 -2 14 -10 -21 -14 -5 -50 20 -44 11 3 17 9 12 12 -8 6 -11 14 -19 55 -4 22 -14 34 -14 17z"/>
 <path d="M610 396 c0 -2 8 -10 18 -17 15 -13 16 -12 3 4 -13 16 -21 21 -21 13z"/>
 <path d="M60 292 c0 -6 -8 -9 -17 -8 -10 0 -19 -7 -21 -16 -2 -10 2 -18 8 -18 6 0 8 5 5 10 -3 6 -1 10 5 10 7 0 9 -8 5 -20 -4 -13 -1 -22 8 -26 9 -3 13 -13 10 -25 -6 -22 5 -24 30 -5 16 13 16 14 -5 19 -18 5 -20 9 -10 19 17 17 15 28 -4 28 -13 0 -14 3 -5 14 8 10 9 16 1 21 -5 3 -10 2 -10 -3z m20 -46 c0 -3 -4 -8 -10 -11 -5 -3 -10 -1 -10 4 0 6 5 11 10 11 6 0 10 -2 10 -4z"/>
 <path d="M447 263 c-11 -10 -8 -43 3 -43 5 0 7 7 3 16 -3 9 0 20 8 25 8 5 9 9 3 9 -6 0 -14 -3 -17 -7z"/>
 <path d="M230 174 c0 -14 4 -23 10 -19 6 3 10 13 10 21 0 9 5 12 12 8 7 -4 8 -3 4 4 -13 22 -36 13 -36 -14z"/>
 <path d="M103 176 c5 -14 3 -17 -8 -12 -8 3 -15 1 -15 -4 0 -6 9 -10 20 -10 22 0 27 24 8 36 -8 5 -9 2 -5 -10z"/>
 <path d="M90 130 c-11 -7 -12 -12 -3 -21 14 -14 46 -4 41 13 -6 16 -20 19 -38 8z m17 -17 c-4 -3 -7 0 -7 7 0 7 3 10 7 7 3 -4 3 -10 0 -14z"/>
 <path d="M85 71 c-3 -5 -1 -12 4 -15 12 -8 41 3 41 15 0 12 -37 12 -45 0z"/>
 <path d="M112 31 c-13 -3 -24 -10 -25 -16 -3 -14 43 -19 56 -6 16 16 -3 29 -31 22z"/>
 </g>

</svg>