<svg width="1024" height="1024" xmlns="http://www.w3.org/2000/svg" t="1666695114393" class="icon" version="1.1"
     p-id="10022">
    <g>
        <title>Layer 1</title>
        <rect fill="#ffffff" x="0" y="0" width="1024" height="1024" id="svg_3" stroke-width="0" rx="100" stroke="#000"/>
        <path id="svg_1" fill="#1E90FF" p-id="10174"
              d="m101.312,337.6l821.312,0c20.544,0 37.248,0 37.248,-32.128c0,-17.856 -28.864,-34.368 -31.488,-36.032l-152.128,-98.624c-17.28,-11.2 -39.104,-8.192 -48.832,6.656c-9.6,14.912 -3.456,36.096 13.824,47.296l74.944,48.576l-714.88,0c-20.608,0 -37.312,14.4 -37.312,32.128c0,17.792 16.704,32.128 37.312,32.128zm821.248,364.8l-821.312,0c-20.544,0 -37.248,0 -37.248,32.128c0,17.856 28.864,34.368 31.488,36.032l152.128,98.624c17.28,11.2 39.104,8.192 48.832,-6.656c9.6,-14.912 3.456,-36.096 -13.824,-47.232l-74.944,-48.64l714.88,0c20.544,0 37.312,-14.4 37.312,-32.128s-16.768,-32.128 -37.312,-32.128z"/>
        <text fill="#1E90FF" stroke-width="0" x="65.99816" y="610.50171" id="svg_2" font-size="250"
              font-family="Noto Sans JP" text-anchor="start" xml:space="preserve" font-weight="bold">SMART</text>
    </g>

</svg>
