<svg width="40" height="40" viewBox="0 0 40 40" fill="none" xmlns="http://www.w3.org/2000/svg">
<rect width="40" height="40" fill="black"/>
<g clip-path="url(#clip0_101_2)">
<path fill-rule="evenodd" clip-rule="evenodd" d="M29.5 20C24.8038 20 21 23.8038 21 28.5C21 32.2613 23.4331 35.4381 26.8119 36.5644C27.2369 36.6388 27.3962 36.3838 27.3962 36.1606C27.3962 35.9588 27.3856 35.2894 27.3856 34.5775C25.25 34.9706 24.6975 34.0569 24.5275 33.5788C24.4319 33.3344 24.0175 32.58 23.6562 32.3781C23.3588 32.2188 22.9338 31.8256 23.6456 31.815C24.315 31.8044 24.7931 32.4313 24.9525 32.6863C25.7175 33.9719 26.9394 33.6106 27.4281 33.3875C27.5025 32.835 27.7256 32.4631 27.97 32.2506C26.0788 32.0381 24.1025 31.305 24.1025 28.0538C24.1025 27.1294 24.4319 26.3644 24.9738 25.7694C24.8888 25.5569 24.5912 24.6856 25.0588 23.5169C25.0588 23.5169 25.7706 23.2938 27.3962 24.3881C28.0763 24.1969 28.7988 24.1013 29.5213 24.1013C30.2438 24.1013 30.9663 24.1969 31.6463 24.3881C33.2719 23.2831 33.9838 23.5169 33.9838 23.5169C34.4513 24.6856 34.1538 25.5569 34.0688 25.7694C34.6106 26.3644 34.94 27.1188 34.94 28.0538C34.94 31.3156 32.9531 32.0381 31.0619 32.2506C31.37 32.5163 31.6356 33.0263 31.6356 33.8231C31.6356 34.96 31.625 35.8738 31.625 36.1606C31.625 36.3838 31.7844 36.6494 32.2094 36.5644C35.5669 35.4381 38 32.2506 38 28.5C38 23.8038 34.1962 20 29.5 20Z" fill="white"/>
</g>
<path d="M14.2784 8.4375H11.7898C11.7443 8.11553 11.6515 7.82955 11.5114 7.57955C11.3712 7.32576 11.1913 7.10985 10.9716 6.93182C10.7519 6.75379 10.4981 6.61742 10.2102 6.52273C9.92614 6.42803 9.61742 6.38068 9.28409 6.38068C8.68182 6.38068 8.1572 6.5303 7.71023 6.82955C7.26326 7.125 6.91667 7.55682 6.67045 8.125C6.42424 8.68939 6.30114 9.375 6.30114 10.1818C6.30114 11.0114 6.42424 11.7083 6.67045 12.2727C6.92045 12.8371 7.26894 13.2633 7.71591 13.5511C8.16288 13.839 8.67992 13.983 9.26705 13.983C9.59659 13.983 9.90152 13.9394 10.1818 13.8523C10.4659 13.7652 10.7178 13.6383 10.9375 13.4716C11.1572 13.3011 11.339 13.0947 11.483 12.8523C11.6307 12.6098 11.733 12.3333 11.7898 12.0227L14.2784 12.0341C14.214 12.5682 14.053 13.0833 13.7955 13.5795C13.5417 14.072 13.1989 14.5133 12.767 14.9034C12.339 15.2898 11.8277 15.5966 11.233 15.8239C10.642 16.0473 9.97348 16.1591 9.22727 16.1591C8.18939 16.1591 7.26136 15.9242 6.44318 15.4545C5.62879 14.9848 4.98485 14.3049 4.51136 13.4148C4.04167 12.5246 3.80682 11.447 3.80682 10.1818C3.80682 8.91288 4.04545 7.83333 4.52273 6.94318C5 6.05303 5.64773 5.375 6.46591 4.90909C7.28409 4.43939 8.20455 4.20455 9.22727 4.20455C9.90152 4.20455 10.5265 4.29924 11.1023 4.48864C11.6818 4.67803 12.1951 4.95455 12.642 5.31818C13.089 5.67803 13.4527 6.11932 13.733 6.64205C14.017 7.16477 14.1989 7.76326 14.2784 8.4375ZM18.5028 4.36364V16H16.0426V4.36364H18.5028Z" fill="white"/>
<defs>
<clipPath id="clip0_101_2">
<rect width="17" height="17" fill="white" transform="translate(21 20)"/>
</clipPath>
</defs>
</svg>
